<?xml version="1.0" encoding="UTF-8" standalone="no"?>
<svg
   xmlns:dc="http://purl.org/dc/elements/1.1/"
   xmlns:cc="http://creativecommons.org/ns#"
   xmlns:rdf="http://www.w3.org/1999/02/22-rdf-syntax-ns#"
   xmlns:svg="http://www.w3.org/2000/svg"
   xmlns="http://www.w3.org/2000/svg"
   id="svg884"
   version="1.1"
   viewBox="0 0 42.333331 9.0532036"
   height="9.0532036mm"
   width="42.333332mm">
  <defs
     id="defs878" />
  <metadata
     id="metadata881">
    <rdf:RDF>
      <cc:Work
         rdf:about="">
        <dc:format>image/svg+xml</dc:format>
        <dc:type
           rdf:resource="http://purl.org/dc/dcmitype/StillImage" />
        <dc:title></dc:title>
      </cc:Work>
    </rdf:RDF>
  </metadata>
  <g
     transform="translate(-97.727934,-95.723745)"
     id="layer1">
    <path
       d="m 106.51249,102.94551 c 0.72428,0 1.20188,-0.23091 1.64275,-0.9657 -0.10902,1.24145 0.95192,0.91933 1.98446,0.91933 0,0 -0.15225,-0.63623 -0.15127,-0.96027 0.003,-0.99309 0.34718,-2.029643 0.48135,-2.94013 0.14696,-0.997203 -0.32015,-1.689978 -2.18333,-1.689978 -1.39607,0 -2.5927,0.514327 -2.85512,1.794938 h 1.64275 c 0.22043,-0.367395 0.6298,-0.461857 0.91846,-0.472355 0.39363,-0.011 0.56683,0.147019 0.51435,0.493352 l -0.0315,0.230918 h -0.41987 c -1.96289,0 -2.97583,0.682295 -3.15428,1.857925 -0.1627,1.12316 0.58257,1.73197 1.61126,1.73197 z m 0.90273,-1.29108 c -0.35165,0 -0.62981,-0.24144 -0.57208,-0.65081 0.0787,-0.53534 0.8345,-0.6823 1.1599,-0.6823 h 0.3254 l -0.10497,0.6823 c -0.0682,0.34638 -0.40938,0.65081 -0.80825,0.65081 z"
       style="font-style:italic;font-variant:normal;font-weight:900;font-stretch:normal;font-size:10.58333302px;line-height:1.25;font-family:'Public Sans';-inkscape-font-specification:'Public Sans, Heavy Italic';font-variant-ligatures:normal;font-variant-caps:normal;font-variant-numeric:normal;font-feature-settings:normal;text-align:start;letter-spacing:0px;word-spacing:0px;writing-mode:lr-tb;text-anchor:start;fill:#000000;fill-opacity:1;stroke:none;stroke-width:0.26241934"
       id="path845-6" />
    <path
       d="m 110.68102,104.53053 h 2.04163 l 0.33065,-2.35128 c 0.27816,0.55632 0.83449,0.76626 1.2806,0.76626 1.15465,0 2.31979,-0.76626 2.6137,-2.83411 0.26767,-1.920916 -0.46711,-2.802638 -1.60076,-2.802638 -0.50909,0 -1.21238,0.178493 -1.70048,0.734768 l 0.0892,-0.629807 h -2.05212 z m 3.32223,-3.04405 c -0.59831,0 -0.75052,-0.70854 -0.65604,-1.37508 0.0997,-0.734789 0.44086,-1.364596 1.03918,-1.364596 0.45136,0 0.7925,0.482854 0.67179,1.364596 -0.13646,0.97619 -0.60357,1.37508 -1.05493,1.37508 z"
       style="font-style:italic;font-variant:normal;font-weight:900;font-stretch:normal;font-size:10.58333302px;line-height:1.25;font-family:'Public Sans';-inkscape-font-specification:'Public Sans, Heavy Italic';font-variant-ligatures:normal;font-variant-caps:normal;font-variant-numeric:normal;font-feature-settings:normal;text-align:start;letter-spacing:0px;word-spacing:0px;writing-mode:lr-tb;text-anchor:start;fill:#000000;fill-opacity:1;stroke:none;stroke-width:0.26241934"
       id="path847-6" />
    <path
       d="m 119.97439,102.92452 c 0.6508,0 0.93946,-0.0944 1.10216,-0.16793 l 0.17844,-1.20715 h -0.83974 c -0.18369,0 -0.32015,-0.0524 -0.28341,-0.2939 l 0.36214,-2.456245 h 1.18088 l 0.20994,-1.396071 h -1.18089 l 0.25192,-1.679479 h -1.64274 c -0.36674,1.233733 -0.25805,1.689978 -1.50629,1.689978 l -0.20993,1.385572 h 0.87123 L 118.07972,101.35 c -0.12072,0.87124 0.18894,1.57452 1.89467,1.57452 z"
       style="font-style:italic;font-variant:normal;font-weight:900;font-stretch:normal;font-size:10.58333302px;line-height:1.25;font-family:'Public Sans';-inkscape-font-specification:'Public Sans, Heavy Italic';font-variant-ligatures:normal;font-variant-caps:normal;font-variant-numeric:normal;font-feature-settings:normal;text-align:start;letter-spacing:0px;word-spacing:0px;writing-mode:lr-tb;text-anchor:start;fill:#000000;fill-opacity:1;stroke:none;stroke-width:0.26241934"
       id="path849-8" />
    <path
       d="m 122.80293,104.57252 c 0.93422,0 1.70048,-0.3359 2.67143,-2.04687 l 2.87087,-5.111927 h -1.98389 l -1.51153,2.949597 -0.56683,-2.949597 h -1.99439 l 1.3226,5.111927 -0.042,0.10498 c -0.0315,0.063 -0.14695,0.53535 -1.19663,0.45136 l -0.51434,-0.0315 -0.18894,1.29111 c 0,0 0.30965,0.23094 1.13365,0.23094 z"
       style="font-style:italic;font-variant:normal;font-weight:900;font-stretch:normal;font-size:10.58333302px;line-height:1.25;font-family:'Public Sans';-inkscape-font-specification:'Public Sans, Heavy Italic';font-variant-ligatures:normal;font-variant-caps:normal;font-variant-numeric:normal;font-feature-settings:normal;text-align:start;letter-spacing:0px;word-spacing:0px;writing-mode:lr-tb;text-anchor:start;fill:#000000;fill-opacity:1;stroke:none;stroke-width:0.26241934"
       id="path851-6" />
    <path
       d="m 127.89891,104.53053 h 2.04163 l 0.33065,-2.35128 c 0.27816,0.55632 0.83449,0.76626 1.2806,0.76626 1.15465,0 2.31979,-0.76626 2.6137,-2.83411 0.26767,-1.920916 -0.46711,-2.802638 -1.60076,-2.802638 -0.50909,0 -1.21238,0.178493 -1.70048,0.734768 l 0.0892,-0.629807 h -2.05212 z m 3.32223,-3.04405 c -0.59831,0 -0.75051,-0.70854 -0.65604,-1.37508 0.0997,-0.734789 0.44086,-1.364596 1.03918,-1.364596 0.45136,0 0.7925,0.482854 0.67179,1.364596 -0.13646,0.97619 -0.60356,1.37508 -1.05493,1.37508 z"
       style="font-style:italic;font-variant:normal;font-weight:900;font-stretch:normal;font-size:10.58333302px;line-height:1.25;font-family:'Public Sans';-inkscape-font-specification:'Public Sans, Heavy Italic';font-variant-ligatures:normal;font-variant-caps:normal;font-variant-numeric:normal;font-feature-settings:normal;text-align:start;letter-spacing:0px;word-spacing:0px;writing-mode:lr-tb;text-anchor:start;fill:#000000;fill-opacity:1;stroke:none;stroke-width:0.26241934"
       id="path853-3" />
    <path
       d="m 137.01317,102.94551 c 1.20188,0 2.54022,-0.74526 2.88661,-1.95239 h -1.79495 c -0.23093,0.41987 -0.55108,0.52485 -0.92371,0.52485 -0.44087,0 -0.76102,-0.27293 -0.64031,-0.92374 h 3.39571 l 0.0787,-0.47235 c 0.24143,-1.605994 -0.46186,-2.813118 -2.23056,-2.813118 -1.72672,0 -2.94435,1.333081 -3.17528,2.886608 -0.25192,1.64798 0.71903,2.75014 2.40376,2.75014 z m -0.32015,-3.495411 c 0.0682,-0.409388 0.4671,-0.766263 0.88173,-0.766263 0.51959,0 0.72952,0.356875 0.66654,0.766263 z"
       style="font-style:italic;font-variant:normal;font-weight:900;font-stretch:normal;font-size:10.58333302px;line-height:1.25;font-family:'Public Sans';-inkscape-font-specification:'Public Sans, Heavy Italic';font-variant-ligatures:normal;font-variant-caps:normal;font-variant-numeric:normal;font-feature-settings:normal;text-align:start;letter-spacing:0px;word-spacing:0px;writing-mode:lr-tb;text-anchor:start;fill:#000000;fill-opacity:1;stroke:none;stroke-width:0.26241934"
       id="path855-8" />
    <path
       d="m 99.136228,95.887139 1.540692,3.517049 -2.852788,1.249562 5.162798,4.02701 c -0.53392,-1.22279 -1.08016,-2.46883 -1.53913,-3.51702 l 2.85278,-1.249054 -5.163302,-4.027019 z"
       style="fill:#ffffff;fill-opacity:1;stroke:#ffffff;stroke-width:0.19241333;stroke-linecap:round;stroke-linejoin:round;stroke-miterlimit:4;stroke-dasharray:none;stroke-opacity:1"
       id="path869-6" />
  </g>
</svg>
