<?xml version="1.0" encoding="UTF-8" standalone="no"?>
<!-- Created with Inkscape (http://www.inkscape.org/) -->

<svg
   xmlns:dc="http://purl.org/dc/elements/1.1/"
   xmlns:cc="http://creativecommons.org/ns#"
   xmlns:rdf="http://www.w3.org/1999/02/22-rdf-syntax-ns#"
   xmlns:svg="http://www.w3.org/2000/svg"
   xmlns="http://www.w3.org/2000/svg"
   xmlns:xlink="http://www.w3.org/1999/xlink"
   xmlns:sodipodi="http://sodipodi.sourceforge.net/DTD/sodipodi-0.dtd"
   xmlns:inkscape="http://www.inkscape.org/namespaces/inkscape"
   width="17.285799mm"
   height="23.433077mm"
   viewBox="0 0 17.285799 23.433077"
   version="1.1"
   id="svg961"
   inkscape:version="0.92.4 (5da689c313, 2019-01-14)"
   sodipodi:docname="zaprototype_isometric.svg">
  <defs
     id="defs955">
    <linearGradient
       inkscape:collect="always"
       xlink:href="#linearGradient1702"
       id="linearGradient1704"
       x1="-53.880226"
       y1="135.30583"
       x2="-50.021736"
       y2="135.42705"
       gradientUnits="userSpaceOnUse" />
    <linearGradient
       inkscape:collect="always"
       id="linearGradient1702">
      <stop
         style="stop-color:#ff7d85;stop-opacity:1"
         offset="0"
         id="stop1698" />
      <stop
         style="stop-color:#ff414c;stop-opacity:1"
         offset="1"
         id="stop1700" />
    </linearGradient>
  </defs>
  <sodipodi:namedview
     id="base"
     pagecolor="#ffffff"
     bordercolor="#666666"
     borderopacity="1.0"
     inkscape:pageopacity="0.0"
     inkscape:pageshadow="2"
     inkscape:zoom="5.6568543"
     inkscape:cx="8.9149324"
     inkscape:cy="26.220964"
     inkscape:document-units="mm"
     inkscape:current-layer="g1585"
     showgrid="true"
     inkscape:pagecheckerboard="true"
     showborder="false"
     fit-margin-top="0"
     fit-margin-left="0"
     fit-margin-right="0"
     fit-margin-bottom="0"
     inkscape:window-width="1920"
     inkscape:window-height="1027"
     inkscape:window-x="-8"
     inkscape:window-y="-8"
     inkscape:window-maximized="1"
     inkscape:snap-bbox="true"
     inkscape:snap-bbox-midpoints="true"
     inkscape:snap-nodes="false"
     inkscape:snap-global="false">
    <inkscape:grid
       type="xygrid"
       id="grid1552"
       spacingx="2.6458334"
       spacingy="2.6458334"
       enabled="true"
       originx="8.6429098"
       originy="11.716537" />
  </sodipodi:namedview>
  <metadata
     id="metadata958">
    <rdf:RDF>
      <cc:Work
         rdf:about="">
        <dc:format>image/svg+xml</dc:format>
        <dc:type
           rdf:resource="http://purl.org/dc/dcmitype/StillImage" />
        <dc:title></dc:title>
      </cc:Work>
    </rdf:RDF>
  </metadata>
  <g
     inkscape:label="レイヤー 1"
     inkscape:groupmode="layer"
     id="layer1"
     transform="translate(-192.86897,-145.30687)">
    <g
       id="g1585"
       transform="translate(2.6038578e-7,-3.5264648)">
      <g
         id="g2370">
        <g
           id="g1750"
           transform="translate(247.92798,19.408291)">
          <g
             id="g1667"
             style="stroke:#ff6972;stroke-width:1.85208333;stroke-miterlimit:4;stroke-dasharray:none;stroke-opacity:1"
             transform="matrix(1.1808669,0.77339897,0.10045835,1.7842792,-27.159513,8.2261341)"
             inkscape:export-filename="C:\Users\yamam\zaprototype-logo-t.png"
             inkscape:export-xdpi="542.59442"
             inkscape:export-ydpi="542.59442">
            <path
               sodipodi:nodetypes="ssssssssssssssssssssssssssssssssssssssssssssssssssssssssssssssssssssssssssssssssssssssssssssssssssssssssssssssssssssssssssssssssss"
               style="color:#000000;font-style:normal;font-variant:normal;font-weight:normal;font-stretch:normal;font-size:medium;line-height:normal;font-family:sans-serif;font-variant-ligatures:normal;font-variant-position:normal;font-variant-caps:normal;font-variant-numeric:normal;font-variant-alternates:normal;font-feature-settings:normal;text-indent:0;text-align:start;text-decoration:none;text-decoration-line:none;text-decoration-style:solid;text-decoration-color:#000000;letter-spacing:normal;word-spacing:normal;text-transform:none;writing-mode:lr-tb;direction:ltr;text-orientation:mixed;dominant-baseline:auto;baseline-shift:baseline;text-anchor:start;white-space:normal;shape-padding:0;clip-rule:nonzero;display:inline;overflow:visible;visibility:visible;opacity:1;isolation:auto;mix-blend-mode:normal;color-interpolation:sRGB;color-interpolation-filters:linearRGB;solid-color:#000000;solid-opacity:1;vector-effect:none;fill:#ff6972;fill-opacity:1;fill-rule:nonzero;stroke:none;stroke-width:1.85208333;stroke-linecap:round;stroke-linejoin:round;stroke-miterlimit:4;stroke-dasharray:none;stroke-dashoffset:0;stroke-opacity:1;paint-order:fill markers stroke;color-rendering:auto;image-rendering:auto;shape-rendering:auto;text-rendering:auto;enable-background:accumulate"
               d="m -25.400391,79.201172 c -0.102357,0 -0.203578,0.0053 -0.303404,0.01555 -0.09983,0.01028 -0.198257,0.02556 -0.295036,0.0456 -0.09678,0.02004 -0.191905,0.04482 -0.285121,0.0741 -0.09322,0.02928 -0.184522,0.06305 -0.273661,0.101057 -0.08914,0.03801 -0.176109,0.08024 -0.260654,0.126458 -0.08454,0.04621 -0.166664,0.0964 -0.2461,0.150305 -0.07944,0.0539 -0.156189,0.111524 -0.230001,0.172602 -0.07381,0.06108 -0.144683,0.125612 -0.212355,0.193345 -0.06767,0.06773 -0.132147,0.138665 -0.193164,0.212537 -0.06102,0.07387 -0.118578,0.150685 -0.172425,0.230178 -0.05385,0.07949 -0.103979,0.161668 -0.15014,0.246266 -0.04616,0.0846 -0.08835,0.171617 -0.12631,0.260801 -0.03796,0.08918 -0.07169,0.180532 -0.100932,0.273786 -0.02924,0.09325 -0.054,0.188412 -0.07401,0.285217 -0.02001,0.09681 -0.03528,0.195258 -0.04554,0.295098 -0.01026,0.09984 -0.01552,0.201069 -0.01552,0.303426 0,0.102357 0.0053,0.203578 0.01552,0.303404 0.01026,0.09983 0.02553,0.198257 0.04554,0.295036 0.02001,0.09678 0.04477,0.191905 0.07401,0.285121 0.02924,0.09322 0.06297,0.184522 0.100932,0.273661 0.03796,0.08914 0.08015,0.176109 0.12631,0.260654 0.04616,0.08454 0.09629,0.166664 0.15014,0.2461 0.05385,0.07944 0.111408,0.156189 0.172425,0.230001 0.06102,0.07381 0.125491,0.144683 0.193164,0.212355 0.06767,0.06767 0.138543,0.132147 0.212355,0.193164 0.07381,0.06102 0.150565,0.118578 0.230001,0.172425 0.07944,0.05385 0.161556,0.103979 0.2461,0.15014 0.08454,0.04616 0.171516,0.08835 0.260654,0.12631 0.08914,0.03796 0.180445,0.07169 0.273661,0.100932 0.09322,0.02924 0.188343,0.054 0.285121,0.07401 0.09678,0.02001 0.19521,0.03528 0.295036,0.04554 0.09983,0.01026 0.201047,0.01552 0.303404,0.01552 0.102358,0 0.203586,-0.0053 0.303426,-0.01552 0.09984,-0.01026 0.198292,-0.02553 0.295098,-0.04554 0.0968,-0.02001 0.191964,-0.04477 0.285218,-0.07401 0.09325,-0.02924 0.184601,-0.06297 0.273785,-0.100932 0.08919,-0.03796 0.176205,-0.08015 0.260802,-0.12631 0.0846,-0.04616 0.166772,-0.09629 0.246266,-0.15014 0.07949,-0.05385 0.156305,-0.111408 0.230177,-0.172425 0.07387,-0.06102 0.144804,-0.125491 0.212538,-0.193164 0.06773,-0.06767 0.132268,-0.138543 0.193345,-0.212355 0.06108,-0.07381 0.118698,-0.150565 0.172602,-0.230001 0.0539,-0.07944 0.104092,-0.161556 0.150305,-0.2461 0.04621,-0.08455 0.08845,-0.171516 0.126458,-0.260654 0.038,-0.08914 0.07178,-0.180445 0.101057,-0.273661 0.02928,-0.09322 0.05407,-0.188343 0.0741,-0.285121 0.02004,-0.09678 0.03532,-0.19521 0.0456,-0.295036 0.01028,-0.09983 0.01554,-0.201047 0.01554,-0.303404 0,-0.102357 -0.0053,-0.203586 -0.01554,-0.303426 -0.01028,-0.09984 -0.02556,-0.198292 -0.0456,-0.295098 -0.02004,-0.09681 -0.04482,-0.191964 -0.0741,-0.285217 -0.02928,-0.09325 -0.06305,-0.184602 -0.101057,-0.273786 -0.03801,-0.08918 -0.08024,-0.176204 -0.126458,-0.260801 -0.04621,-0.0846 -0.0964,-0.166773 -0.150305,-0.246266 -0.0539,-0.07949 -0.111524,-0.156305 -0.172602,-0.230178 -0.06108,-0.07387 -0.125612,-0.144804 -0.193345,-0.212537 -0.06773,-0.06773 -0.138666,-0.132268 -0.212538,-0.193345 -0.07387,-0.06108 -0.150684,-0.118698 -0.230177,-0.172602 -0.07949,-0.0539 -0.161668,-0.104092 -0.246266,-0.150305 -0.0846,-0.04621 -0.171617,-0.08845 -0.260802,-0.126458 -0.08918,-0.038 -0.180532,-0.07178 -0.273785,-0.101057 -0.09325,-0.02928 -0.188413,-0.05407 -0.285218,-0.0741 -0.09681,-0.02004 -0.195258,-0.03532 -0.295098,-0.0456 -0.09984,-0.01028 -0.201068,-0.01555 -0.303426,-0.01555 z m 0,1.853516 c 0.0398,0 0.07905,0.0019 0.11766,0.0057 0.03861,0.0038 0.07659,0.0094 0.113841,0.01683 0.03725,0.0074 0.07378,0.01657 0.109501,0.02742 0.03572,0.01084 0.07063,0.02337 0.104642,0.03748 0.03401,0.01411 0.06713,0.02982 0.09926,0.04702 0.03213,0.01721 0.06328,0.03592 0.09336,0.05605 0.03008,0.02013 0.05909,0.04167 0.08694,0.06455 0.02785,0.02288 0.05455,0.04708 0.08,0.07253 0.02545,0.02545 0.04966,0.05215 0.07253,0.08 0.02288,0.02785 0.04442,0.05686 0.06455,0.08694 0.02013,0.03008 0.03884,0.06123 0.05605,0.09336 0.01721,0.03213 0.03291,0.06525 0.04703,0.09926 0.01411,0.03401 0.02664,0.06892 0.03748,0.104641 0.01084,0.03572 0.02001,0.07225 0.02742,0.109501 0.0074,0.03725 0.01304,0.07523 0.01683,0.113841 0.0038,0.03861 0.0057,0.07786 0.0057,0.11766 0,0.0398 -0.0019,0.07905 -0.0057,0.11766 -0.0038,0.03861 -0.0094,0.07659 -0.01683,0.113841 -0.0074,0.03725 -0.01657,0.07378 -0.02742,0.109501 -0.01084,0.03572 -0.02337,0.07063 -0.03748,0.104641 -0.01411,0.03401 -0.02982,0.06713 -0.04703,0.09926 -0.01721,0.03213 -0.03592,0.06328 -0.05605,0.09336 -0.02013,0.03008 -0.04167,0.05909 -0.06455,0.08694 -0.02288,0.02785 -0.04708,0.05455 -0.07253,0.08 -0.02545,0.02545 -0.05214,0.04966 -0.08,0.07253 -0.02785,0.02288 -0.05686,0.04442 -0.08694,0.06455 -0.03008,0.02013 -0.06123,0.03884 -0.09336,0.05605 -0.03213,0.01721 -0.06525,0.03291 -0.09926,0.04702 -0.03401,0.01411 -0.06892,0.02664 -0.104642,0.03748 -0.03572,0.01085 -0.07225,0.02001 -0.109501,0.02742 -0.03725,0.0074 -0.07523,0.01304 -0.113841,0.01683 -0.03861,0.0038 -0.07786,0.0057 -0.11766,0.0057 -0.0398,0 -0.07905,-0.0019 -0.11766,-0.0057 -0.03861,-0.0038 -0.07659,-0.0094 -0.113841,-0.01683 -0.03725,-0.0074 -0.07378,-0.01657 -0.109501,-0.02742 -0.03572,-0.01084 -0.07063,-0.02337 -0.104641,-0.03748 -0.03401,-0.01411 -0.06713,-0.02982 -0.09926,-0.04702 -0.03213,-0.01721 -0.06328,-0.03592 -0.09336,-0.05605 -0.03008,-0.02013 -0.05909,-0.04167 -0.08694,-0.06455 -0.02785,-0.02288 -0.05455,-0.04708 -0.08,-0.07253 -0.02545,-0.02545 -0.04966,-0.05215 -0.07253,-0.08 -0.02288,-0.02785 -0.04442,-0.05686 -0.06455,-0.08694 -0.02013,-0.03008 -0.03884,-0.06123 -0.05605,-0.09336 -0.01721,-0.03213 -0.03291,-0.06525 -0.04702,-0.09926 -0.01411,-0.03401 -0.02664,-0.06892 -0.03748,-0.104641 -0.01084,-0.03572 -0.02001,-0.07225 -0.02742,-0.109501 -0.0074,-0.03725 -0.01304,-0.07523 -0.01683,-0.113841 -0.0038,-0.03861 -0.0057,-0.07786 -0.0057,-0.11766 0,-0.0398 0.0019,-0.07905 0.0057,-0.11766 0.0038,-0.03861 0.0094,-0.07659 0.01683,-0.113841 0.0074,-0.03725 0.01657,-0.07378 0.02742,-0.109501 0.01084,-0.03572 0.02337,-0.07063 0.03748,-0.104641 0.01411,-0.03401 0.02982,-0.06713 0.04702,-0.09926 0.01721,-0.03213 0.03592,-0.06328 0.05605,-0.09336 0.02013,-0.03008 0.04168,-0.05909 0.06455,-0.08694 0.02288,-0.02785 0.04708,-0.05455 0.07253,-0.08 0.02545,-0.02545 0.05215,-0.04966 0.08,-0.07253 0.02785,-0.02288 0.05686,-0.04442 0.08694,-0.06455 0.03008,-0.02013 0.06123,-0.03884 0.09336,-0.05605 0.03213,-0.01721 0.06525,-0.03291 0.09926,-0.04702 0.03401,-0.01411 0.06892,-0.02664 0.104641,-0.03748 0.03572,-0.01085 0.07225,-0.02001 0.109501,-0.02742 0.03725,-0.0074 0.07523,-0.01304 0.113841,-0.01683 0.03861,-0.0038 0.07786,-0.0057 0.11766,-0.0057 z"
               id="path1661"
               inkscape:connector-curvature="0" />
            <g
               transform="matrix(0.79716281,0,0,0.79716281,-4.2858834,26.817564)"
               style="stroke:#ff6972;stroke-width:2.32334399;stroke-linecap:round;stroke-linejoin:round;stroke-miterlimit:4;stroke-dasharray:none;stroke-opacity:1"
               id="g1665">
              <path
                 sodipodi:nodetypes="cssssssssssssssscccccccccccccccccccccccccccccccccssssssssssssssscccccccccccccccccccccccccccccccccsssssssssssssssscccccccccccccccccccccccccccccccccssssssssssssssscccccccccccccccccccccccccccccccccssssssssssssssscc"
                 style="color:#000000;font-style:normal;font-variant:normal;font-weight:normal;font-stretch:normal;font-size:medium;line-height:normal;font-family:sans-serif;font-variant-ligatures:normal;font-variant-position:normal;font-variant-caps:normal;font-variant-numeric:normal;font-variant-alternates:normal;font-feature-settings:normal;text-indent:0;text-align:start;text-decoration:none;text-decoration-line:none;text-decoration-style:solid;text-decoration-color:#000000;letter-spacing:normal;word-spacing:normal;text-transform:none;writing-mode:lr-tb;direction:ltr;text-orientation:mixed;dominant-baseline:auto;baseline-shift:baseline;text-anchor:start;white-space:normal;shape-padding:0;clip-rule:nonzero;display:inline;overflow:visible;visibility:visible;opacity:1;isolation:auto;mix-blend-mode:normal;color-interpolation:sRGB;color-interpolation-filters:linearRGB;solid-color:#000000;solid-opacity:1;vector-effect:none;fill:#ff6972;fill-opacity:1;fill-rule:nonzero;stroke:none;stroke-width:2.32334399;stroke-linecap:round;stroke-linejoin:round;stroke-miterlimit:4;stroke-dasharray:none;stroke-dashoffset:0;stroke-opacity:1;color-rendering:auto;image-rendering:auto;shape-rendering:auto;text-rendering:auto;enable-background:accumulate"
                 d="m -18.539062,65.634766 c -0.04002,6.58e-4 -0.07954,0.0033 -0.118461,0.0079 -0.03892,0.0046 -0.07724,0.0111 -0.114858,0.01944 -0.03762,0.0083 -0.07455,0.01848 -0.110683,0.03036 -0.03613,0.01187 -0.07148,0.02547 -0.105935,0.04069 -0.03446,0.01522 -0.06803,0.03206 -0.100616,0.05043 -0.03259,0.01837 -0.0642,0.03826 -0.09473,0.05958 -0.03053,0.02132 -0.05998,0.04407 -0.08826,0.06814 -0.02828,0.02407 -0.05539,0.04948 -0.08122,0.07611 -0.02584,0.02663 -0.05041,0.0545 -0.07362,0.08349 -0.02321,0.02899 -0.04505,0.05912 -0.06544,0.09028 -0.02038,0.03116 -0.03931,0.06336 -0.05668,0.09649 -0.01737,0.03313 -0.03319,0.0672 -0.04736,0.102098 -0.01417,0.0349 -0.02669,0.07064 -0.03746,0.107119 -0.01077,0.03648 -0.0198,0.0737 -0.02699,0.111552 -0.0072,0.03786 -0.01254,0.07636 -0.01595,0.115394 -0.0034,0.03904 -0.0049,0.07862 -0.0043,0.118647 v 0.09277 0.09277 0.09277 0.09277 0.09277 0.09277 0.09277 0.09277 0.09277 0.09277 0.09277 0.09277 0.09277 0.09277 0.09277 0.09277 h -0.09277 -0.09277 -0.09277 -0.09277 -0.09277 -0.09277 -0.09277 -0.09277 -0.09277 -0.09277 -0.09277 -0.09277 -0.09277 -0.09277 -0.09277 -0.09277 c -0.100067,-0.0034 -0.193879,0.003 -0.281438,0.01781 -0.08756,0.01483 -0.168862,0.03815 -0.243912,0.06874 -0.07505,0.03059 -0.143846,0.06846 -0.206388,0.112398 -0.06254,0.04393 -0.118829,0.09393 -0.168862,0.14878 -0.05003,0.05485 -0.09381,0.114547 -0.131338,0.177885 -0.03753,0.06334 -0.0688,0.130313 -0.09381,0.199714 -0.02502,0.0694 -0.04378,0.141227 -0.05629,0.214266 -0.01251,0.07304 -0.01876,0.147291 -0.01876,0.221543 0,0.07425 0.0063,0.148504 0.01876,0.221543 0.01251,0.07304 0.03127,0.144865 0.05629,0.214266 0.02502,0.0694 0.05629,0.136377 0.09381,0.199714 0.03752,0.06334 0.08131,0.123037 0.131338,0.177885 0.05003,0.05485 0.106321,0.104846 0.168862,0.14878 0.06254,0.04393 0.131338,0.0818 0.206388,0.112398 0.07505,0.03059 0.156354,0.05391 0.243912,0.06874 0.08756,0.01483 0.181371,0.02117 0.281438,0.01781 h 0.09277 0.09277 0.09277 0.09277 0.09277 0.09277 0.09277 0.09277 0.09277 0.09277 0.09277 0.09277 0.09277 0.09277 0.09277 0.09277 v 0.09277 0.09277 0.09277 0.09277 0.09277 0.09277 0.09277 0.09277 0.09277 0.09277 0.09277 0.09277 0.09277 0.09277 0.09277 0.09277 c -0.0034,0.100067 0.003,0.193879 0.01781,0.281438 0.01483,0.08756 0.03815,0.168862 0.06874,0.243912 0.03059,0.07505 0.06846,0.143846 0.112398,0.206388 0.04393,0.06254 0.09393,0.118829 0.14878,0.168862 0.05485,0.05003 0.114547,0.09381 0.177885,0.131338 0.06334,0.03753 0.130313,0.0688 0.199714,0.09381 0.0694,0.02502 0.141227,0.04378 0.214266,0.05629 0.07304,0.01251 0.147291,0.01876 0.221543,0.01876 0.07425,0 0.148504,-0.0063 0.221543,-0.01876 0.07304,-0.01251 0.144865,-0.03127 0.214266,-0.05629 0.0347,-0.01251 0.06879,-0.02658 0.102131,-0.04222 0.03334,-0.01564 0.06591,-0.03283 0.09758,-0.05159 0.06334,-0.03752 0.123037,-0.08131 0.177885,-0.131338 0.05485,-0.05003 0.104846,-0.106321 0.14878,-0.168862 0.04393,-0.06254 0.0818,-0.131338 0.112398,-0.206388 0.03059,-0.07505 0.05391,-0.156354 0.06874,-0.243912 0.01483,-0.08756 0.02117,-0.181371 0.01781,-0.281438 v -0.09277 -0.09277 -0.09277 -0.09277 -0.09277 -0.09277 -0.09277 -0.09277 -0.09277 -0.09277 -0.09277 -0.09277 -0.09277 -0.09277 -0.09277 -0.09277 h 0.09277 0.09277 0.09277 0.09277 0.09277 0.09277 0.09277 0.09277 0.09277 0.09277 0.09277 0.09277 0.09277 0.09277 0.09277 0.09277 c 0.100067,0.0034 0.193879,-0.003 0.281438,-0.01781 0.08756,-0.01483 0.168862,-0.03815 0.243912,-0.06874 0.07505,-0.03059 0.143846,-0.06846 0.206388,-0.112398 0.06254,-0.04393 0.118829,-0.09393 0.168862,-0.14878 0.05003,-0.05485 0.09381,-0.114547 0.131338,-0.177885 0.03753,-0.06334 0.06879,-0.130313 0.09381,-0.199714 0.02502,-0.0694 0.04378,-0.141227 0.05629,-0.214266 0.01251,-0.07304 0.01876,-0.147291 0.01876,-0.221543 0,-0.07425 -0.0063,-0.148504 -0.01876,-0.221543 -0.01251,-0.07304 -0.03127,-0.144865 -0.05629,-0.214266 -0.02502,-0.0694 -0.05629,-0.136377 -0.09381,-0.199714 -0.03753,-0.06334 -0.08131,-0.123037 -0.131338,-0.177885 -0.05003,-0.05485 -0.106321,-0.104846 -0.168862,-0.14878 -0.06254,-0.04393 -0.131338,-0.0818 -0.206388,-0.112398 -0.07505,-0.03059 -0.156354,-0.05391 -0.243912,-0.06874 -0.08756,-0.01483 -0.181371,-0.02117 -0.281438,-0.01781 h -0.09277 -0.09277 -0.09277 -0.09277 -0.09277 -0.09277 -0.09277 -0.09277 -0.09277 -0.09277 -0.09277 -0.09277 -0.09277 -0.09277 -0.09277 -0.09277 v -0.09277 -0.09277 -0.09277 -0.09277 -0.09277 -0.09277 -0.09277 -0.09277 -0.09277 -0.09277 -0.09277 -0.09277 -0.09277 -0.09277 -0.09277 -0.09277 c 5.67e-4,-0.04093 -9.87e-4,-0.08139 -0.0046,-0.121267 -0.0036,-0.03988 -0.0092,-0.07918 -0.01666,-0.117792 -0.0075,-0.03862 -0.01692,-0.07655 -0.02815,-0.113699 -0.01123,-0.03715 -0.02427,-0.07351 -0.03902,-0.10899 -0.01475,-0.03548 -0.03121,-0.07006 -0.04928,-0.103663 -0.01807,-0.0336 -0.03774,-0.06621 -0.05891,-0.09772 -0.02117,-0.03151 -0.04385,-0.06194 -0.06793,-0.09116 -0.02408,-0.02923 -0.04956,-0.05725 -0.07633,-0.08398 -0.02677,-0.02673 -0.05485,-0.05216 -0.08411,-0.07619 -0.02926,-0.02403 -0.05972,-0.04666 -0.09127,-0.06778 -0.03155,-0.02112 -0.06419,-0.04074 -0.09782,-0.05875 -0.03363,-0.01801 -0.06824,-0.03441 -0.103745,-0.0491 -0.0355,-0.01469 -0.07189,-0.02768 -0.109054,-0.03884 -0.03717,-0.01117 -0.07512,-0.02053 -0.113746,-0.02797 -0.03863,-0.0074 -0.07794,-0.01296 -0.117819,-0.01647 -0.03988,-0.0035 -0.08034,-0.005 -0.121275,-0.0044 z"
                 id="path1663"
                 inkscape:connector-curvature="0" />
            </g>
          </g>
          <path
             inkscape:connector-curvature="0"
             id="path1669"
             d="m -40.952081,143.65211 2.624601,-0.0314 -1.536918,-2.64761 z"
             style="fill:#ff6972;fill-opacity:1;stroke:none;stroke-width:0.26458332px;stroke-linecap:butt;stroke-linejoin:miter;stroke-opacity:1" />
          <path
             sodipodi:nodetypes="ccccc"
             inkscape:connector-curvature="0"
             id="path1671"
             d="m -43.02291,139.23309 2.624601,-0.0314 -1.749419,-4.65076 -2.61454,0.031 z"
             style="fill:#ff6972;fill-opacity:1;stroke:none;stroke-width:0.26458332px;stroke-linecap:butt;stroke-linejoin:miter;stroke-opacity:1" />
          <path
             inkscape:connector-curvature="0"
             id="path1673"
             d="m -43.217943,145.80439 2.624601,-0.0314 -0.782961,-3.88449 -2.185175,-0.0472 z"
             style="fill:#ff6972;fill-opacity:1;stroke:none;stroke-width:0.26458332px;stroke-linecap:butt;stroke-linejoin:miter;stroke-opacity:1" />
          <path
             inkscape:connector-curvature="0"
             id="path1669-0"
             d="m -44.469214,136.65405 -2.624609,0.0314 1.53692,2.64761 z"
             style="fill:#ff5f69;fill-opacity:1;stroke:none;stroke-width:0.26458332px;stroke-linecap:butt;stroke-linejoin:miter;stroke-opacity:1" />
          <path
             sodipodi:nodetypes="cccccccc"
             transform="matrix(0.26458333,0,0,0.26458333,-35.127884,129.23124)"
             inkscape:connector-curvature="0"
             id="path1690"
             d="m -59.444558,0.75051962 c -2.364606,0.042827 -5.443038,0.10032549 -7.814434,0.15219207 -0.09456,0.0117255 -0.279151,0.10038241 -0.345601,0.13214451 0.775504,0.1938875 2.059615,0.755594 2.774794,1.1181813 0.63165,0.305193 1.66235,1.0199803 2.248986,1.3981954 0.536709,-0.5681152 2.25629,-0.6195645 2.956068,-0.9802992 0.557395,-0.2983731 0.633648,-1.2528378 1.257266,-1.3500672 0.264039,-0.035628 1.725044,-0.55862228 -1.077079,-0.47034688 z"
             style="opacity:1;fill:#ff6972;fill-opacity:1;stroke:none;stroke-width:0.01767767;stroke-linecap:round;stroke-linejoin:round;stroke-miterlimit:4;stroke-dasharray:none;stroke-dashoffset:0;stroke-opacity:1;paint-order:normal" />
          <path
             inkscape:connector-curvature="0"
             id="path1692"
             d="m -50.726402,132.67122 2.198292,6.17392 2.432153,-1.56686 -1.566868,-4.72399 z"
             style="fill:#ff6972;fill-opacity:1;stroke:none;stroke-width:0.26458332px;stroke-linecap:butt;stroke-linejoin:miter;stroke-opacity:1" />
          <path
             inkscape:connector-curvature="0"
             id="path1694"
             d="m -49.879192,141.05742 2.624601,-0.0314 -0.110061,-1.12851 -2.098901,0.0351 z"
             style="fill:#ff6972;fill-opacity:1;stroke:none;stroke-width:0.26458332px;stroke-linecap:butt;stroke-linejoin:miter;stroke-opacity:1" />
          <path
             inkscape:connector-curvature="0"
             id="path1696"
             d="m -53.351061,132.18043 3.219846,1.30209 0.939741,3.41272 -0.984587,1.5029 -1.86862,-0.51263 -1.670182,-3.63802 z"
             style="fill:url(#linearGradient1704);fill-opacity:1;stroke:none;stroke-width:0.26458332px;stroke-linecap:butt;stroke-linejoin:miter;stroke-opacity:1" />
          <g
             inkscape:export-ydpi="542.59442"
             inkscape:export-xdpi="542.59442"
             inkscape:export-filename="C:\Users\yamam\zaprototype-logo-t.png"
             transform="matrix(1.1808669,0.77339897,0.10045835,1.7842792,-29.784114,8.2575264)"
             style="fill:#ff7d85;fill-opacity:1;stroke:#ff6972;stroke-width:1.85208333;stroke-miterlimit:4;stroke-dasharray:none;stroke-opacity:1"
             id="g1715-0-7">
            <path
               sodipodi:nodetypes="ssssssssssssssssssssssssssssssssssssssssssssssssssssssssssssssssssssssssssssssssssssssssssssssssssssssssssssssssssssssssssssssssss"
               inkscape:connector-curvature="0"
               id="path1583-1-0"
               d="m -25.400391,79.201172 c -0.102357,0 -0.203578,0.0053 -0.303404,0.01555 -0.09983,0.01028 -0.198257,0.02556 -0.295036,0.0456 -0.09678,0.02004 -0.191905,0.04482 -0.285121,0.0741 -0.09322,0.02928 2.124733,-0.955494 2.035594,-0.917487 -0.08914,0.03801 -2.485364,1.098784 -2.569909,1.145002 -0.08454,0.04621 -0.166664,0.0964 -0.2461,0.150305 -0.07944,0.0539 -0.156189,0.111524 -0.230001,0.172602 -0.07381,0.06108 -0.144683,0.125612 -0.212355,0.193345 -0.06767,0.06773 -0.132147,0.138665 -0.193164,0.212537 -0.06102,0.07387 -0.118578,0.150685 -0.172425,0.230178 -0.05385,0.07949 -0.103979,0.161668 -0.15014,0.246266 -0.04616,0.0846 -0.08835,0.171617 -0.12631,0.260801 -0.03796,0.08918 -0.07169,0.180532 -0.100932,0.273786 -0.02924,0.09325 -0.054,0.188412 -0.07401,0.285217 -0.02001,0.09681 -0.03528,0.195258 -0.04554,0.295098 -0.01026,0.09984 -0.01552,0.201069 -0.01552,0.303426 0,0.102358 0.0053,0.203578 0.01552,0.303404 0.01026,0.09983 0.02553,0.198257 0.04554,0.295036 0.02001,0.09678 0.04477,0.191905 0.07401,0.285121 0.02924,0.09322 0.06297,0.184522 0.100932,0.273661 0.03796,0.08914 0.08015,0.176109 0.12631,0.260654 0.04616,0.08454 0.09629,0.166664 0.15014,0.2461 0.05385,0.07944 0.111408,0.156189 0.172425,0.230001 0.06102,0.07381 0.125491,0.144683 0.193164,0.212356 0.06767,0.06767 0.138543,0.132146 0.212355,0.193163 0.07381,0.06102 0.150565,0.118578 0.230001,0.172425 0.07944,0.05385 0.161556,0.103979 0.2461,0.15014 0.08454,0.04616 0.171516,0.08835 0.260654,0.12631 0.08914,0.03796 0.180445,0.07169 0.273661,0.100932 0.09322,0.02924 0.188343,0.054 0.285121,0.07401 0.09678,0.02001 0.19521,0.03528 0.295036,0.04554 0.09983,0.01026 0.201047,0.01552 0.303404,0.01552 0.102358,0 0.203586,-0.0053 0.303426,-0.01552 0.09984,-0.01026 0.198292,-0.02553 0.295098,-0.04554 0.0968,-0.02001 0.191964,-0.04477 0.285218,-0.07401 0.09325,-0.02924 0.184601,-0.06297 0.273785,-0.100932 0.08919,-0.03796 0.176205,-0.08015 0.260802,-0.12631 0.0846,-0.04616 0.166772,-0.09629 0.246266,-0.15014 0.07949,-0.05385 0.156305,-0.111408 0.230177,-0.172425 0.07387,-0.06102 0.144804,-0.125491 0.212538,-0.193163 0.06773,-0.06767 0.132268,-0.138544 0.193345,-0.212356 0.06108,-0.07381 0.118698,-0.150565 0.172602,-0.230001 0.0539,-0.07944 0.104092,-0.161556 0.150305,-0.2461 0.04621,-0.08455 0.08845,-0.171516 0.126458,-0.260654 0.038,-0.08914 0.07178,-0.180445 0.101057,-0.273661 0.02928,-0.09322 0.05407,-0.188343 0.0741,-0.285121 0.02004,-0.09678 0.03532,-0.19521 0.0456,-0.295036 0.01028,-0.09983 0.01554,-0.201046 0.01554,-0.303404 0,-0.102357 -0.0053,-0.203586 -0.01554,-0.303426 -0.01028,-0.09984 -0.02556,-0.198292 -0.0456,-0.295098 -0.02004,-0.09681 -0.04482,-0.191964 -0.0741,-0.285217 -0.02928,-0.09325 -0.06305,-0.184602 -0.101057,-0.273786 -0.03801,-0.08918 -0.08024,-0.176204 -0.126458,-0.260801 -0.04621,-0.0846 -0.0964,-0.166773 -0.150305,-0.246266 -0.0539,-0.07949 -0.111524,-0.156305 -0.172602,-0.230178 -0.06108,-0.07387 -0.125612,-0.144804 -0.193345,-0.212537 -0.06773,-0.06773 -0.138666,-0.132268 -0.212538,-0.193345 -0.07387,-0.06108 -0.150684,-0.118698 -0.230177,-0.172602 -0.07949,-0.0539 -0.161668,-0.104092 -0.246266,-0.150305 -0.0846,-0.04621 -0.171617,-0.08845 -0.260802,-0.126458 -0.08918,-0.038 -0.180532,-0.07178 -0.273785,-0.101057 -0.09325,-0.02928 -0.188413,-0.05407 -0.285218,-0.0741 -0.09681,-0.02004 -0.195258,-0.03532 -0.295098,-0.0456 -0.09984,-0.01028 -0.201068,-0.01555 -0.303426,-0.01555 z m 0,1.853516 c 0.0398,0 0.07905,0.0019 0.11766,0.0057 0.03861,0.0038 0.07659,0.0094 0.113841,0.01683 0.03725,0.0074 0.07378,0.01657 0.109501,0.02742 0.03572,0.01084 0.07063,0.02337 0.104642,0.03748 0.03401,0.01411 0.06713,0.02982 0.09926,0.04702 0.03213,0.01721 0.06328,0.03592 0.09336,0.05605 0.03008,0.02013 0.05909,0.04167 0.08694,0.06455 0.02785,0.02288 0.05455,0.04708 0.08,0.07253 0.02545,0.02545 0.04966,0.05215 0.07253,0.08 0.02288,0.02785 0.04442,0.05686 0.06455,0.08694 0.02013,0.03008 0.03884,0.06123 0.05605,0.09336 0.01721,0.03213 0.03291,0.06525 0.04703,0.09926 0.01411,0.03401 0.02664,0.06892 0.03748,0.104641 0.01084,0.03572 0.02001,0.07225 0.02742,0.109501 0.0074,0.03725 0.01304,0.07523 0.01683,0.113841 0.0038,0.03861 0.0057,0.07786 0.0057,0.11766 0,0.0398 -0.0019,0.07905 -0.0057,0.11766 -0.0038,0.03861 -0.0094,0.07659 -0.01683,0.113841 -0.0074,0.03725 -0.01657,0.07378 -0.02742,0.109501 -0.01084,0.03572 -0.02337,0.07063 -0.03748,0.104641 -0.01411,0.03401 -0.02982,0.06713 -0.04703,0.09926 -0.01721,0.03213 -0.03592,0.06328 -0.05605,0.09336 -0.02013,0.03008 -0.04167,0.05909 -0.06455,0.08694 -0.02288,0.02785 -0.04708,0.05455 -0.07253,0.08 -0.02545,0.02545 -0.05214,0.04966 -0.08,0.07253 -0.02785,0.02288 -0.05686,0.04442 -0.08694,0.06455 -0.03008,0.02013 -0.06123,0.03884 -0.09336,0.05605 -0.03213,0.01721 -0.06525,0.03291 -0.09926,0.04702 -0.03401,0.01411 -0.06892,0.02664 -0.104642,0.03748 -0.03572,0.01085 -0.07225,0.02001 -0.109501,0.02742 -0.03725,0.0074 -0.07523,0.01304 -0.113841,0.01683 -0.03861,0.0038 -0.07786,0.0057 -0.11766,0.0057 -0.0398,0 -0.07905,-0.0019 -0.11766,-0.0057 -0.03861,-0.0038 -0.07659,-0.0094 -0.113841,-0.01683 -0.03725,-0.0074 -0.07378,-0.01657 -0.109501,-0.02742 -0.03572,-0.01084 -0.07063,-0.02337 -0.104641,-0.03748 -0.03401,-0.01411 -0.06713,-0.02982 -0.09926,-0.04702 -0.03213,-0.01721 -0.06328,-0.03592 -0.09336,-0.05605 -0.03008,-0.02013 -0.05909,-0.04167 -0.08694,-0.06455 -0.02785,-0.02288 -0.05455,-0.04708 -0.08,-0.07253 -0.02545,-0.02545 -0.04966,-0.05215 -0.07253,-0.08 -0.02288,-0.02785 -0.04442,-0.05686 -0.06455,-0.08694 -0.02013,-0.03008 -0.03884,-0.06123 -0.05605,-0.09336 -0.01721,-0.03213 -0.03291,-0.06525 -0.04702,-0.09926 -0.01411,-0.03401 -0.02664,-0.06892 -0.03748,-0.104641 -0.01084,-0.03572 -0.02001,-0.07225 -0.02742,-0.109501 -0.0074,-0.03725 -0.01304,-0.07523 -0.01683,-0.113841 -0.0038,-0.03861 -0.0057,-0.07786 -0.0057,-0.11766 0,-0.0398 0.0019,-0.07905 0.0057,-0.11766 0.0038,-0.03861 0.0094,-0.07659 0.01683,-0.113841 0.0074,-0.03725 0.01657,-0.07378 0.02742,-0.109501 0.01084,-0.03572 0.02337,-0.07063 0.03748,-0.104641 0.01411,-0.03401 0.02982,-0.06713 0.04702,-0.09926 0.01721,-0.03213 0.03592,-0.06328 0.05605,-0.09336 0.02013,-0.03008 0.04168,-0.05909 0.06455,-0.08694 0.02288,-0.02785 0.04708,-0.05455 0.07253,-0.08 0.02545,-0.02545 0.05214,-0.04966 0.08,-0.07253 0.02785,-0.02288 0.05686,-0.04442 0.08694,-0.06455 0.03008,-0.02013 0.06123,-0.03884 0.09336,-0.05605 0.03213,-0.01721 0.06525,-0.03291 0.09926,-0.04702 0.03401,-0.01411 0.06892,-0.02664 0.104641,-0.03748 0.03572,-0.01085 0.07225,-0.02001 0.109501,-0.02742 0.03725,-0.0074 0.07523,-0.01304 0.113841,-0.01683 0.03861,-0.0038 0.07786,-0.0057 0.11766,-0.0057 z"
               style="color:#000000;font-style:normal;font-variant:normal;font-weight:normal;font-stretch:normal;font-size:medium;line-height:normal;font-family:sans-serif;font-variant-ligatures:normal;font-variant-position:normal;font-variant-caps:normal;font-variant-numeric:normal;font-variant-alternates:normal;font-feature-settings:normal;text-indent:0;text-align:start;text-decoration:none;text-decoration-line:none;text-decoration-style:solid;text-decoration-color:#000000;letter-spacing:normal;word-spacing:normal;text-transform:none;writing-mode:lr-tb;direction:ltr;text-orientation:mixed;dominant-baseline:auto;baseline-shift:baseline;text-anchor:start;white-space:normal;shape-padding:0;clip-rule:nonzero;display:inline;overflow:visible;visibility:visible;opacity:1;isolation:auto;mix-blend-mode:normal;color-interpolation:sRGB;color-interpolation-filters:linearRGB;solid-color:#000000;solid-opacity:1;vector-effect:none;fill:#ff7d85;fill-opacity:1;fill-rule:nonzero;stroke:none;stroke-width:1.85208333;stroke-linecap:round;stroke-linejoin:round;stroke-miterlimit:4;stroke-dasharray:none;stroke-dashoffset:0;stroke-opacity:1;paint-order:fill markers stroke;color-rendering:auto;image-rendering:auto;shape-rendering:auto;text-rendering:auto;enable-background:accumulate" />
            <g
               id="g1591-0-4"
               style="fill:#ff7d85;fill-opacity:1;stroke:#ff6972;stroke-width:2.32334399;stroke-linecap:round;stroke-linejoin:round;stroke-miterlimit:4;stroke-dasharray:none;stroke-opacity:1"
               transform="matrix(0.79716281,0,0,0.79716281,-4.2858834,26.817564)">
              <path
                 sodipodi:nodetypes="cssssssssssssssscccccccccccccccccccccccccccccccccssssssssssssssscccccccccccccccccccccccccccccccccsssssssssssssssscccccccccccccccccccccccccccccccccssssssssssssssscccccccccccccccccccccccccccccccccssssssssssssssscc"
                 inkscape:connector-curvature="0"
                 id="path1587-8-1"
                 d="m -18.539062,65.634766 c -0.04002,6.58e-4 -0.07954,0.0033 -0.118461,0.0079 -0.03892,0.0046 -0.07724,0.0111 -0.114858,0.01944 -0.03762,0.0083 -0.07455,0.01848 -0.110683,0.03036 -0.03613,0.01187 -0.07148,0.02547 -0.105935,0.04069 -0.03446,0.01522 -0.06803,0.03206 -0.100616,0.05043 -0.03259,0.01837 -0.0642,0.03826 -0.09473,0.05958 -0.03053,0.02132 -0.05998,0.04407 -0.08826,0.06814 -0.02828,0.02407 -0.05539,0.04948 -0.08122,0.07611 -0.02584,0.02663 -0.05041,0.0545 -0.07362,0.08349 -0.02321,0.02899 -0.04505,0.05912 -0.06544,0.09028 -0.02038,0.03116 -0.03931,0.06336 -0.05668,0.09649 -0.01737,0.03313 -0.03319,0.0672 -0.04736,0.102098 -0.01417,0.0349 -0.02669,0.07064 -0.03746,0.107119 -0.01077,0.03648 -0.0198,0.0737 -0.02699,0.111552 -0.0072,0.03786 -0.01254,0.07636 -0.01595,0.115394 -0.0034,0.03904 -0.0049,0.07862 -0.0043,0.118647 v 0.09277 0.09277 0.09277 0.09277 0.09277 0.09277 0.09277 0.09277 0.09277 0.09277 0.09277 0.09277 0.09277 0.09277 0.09277 0.09277 h -0.09277 -0.09277 -0.09277 -0.09277 -0.09277 -0.09277 -0.09277 -0.09277 -0.09277 -0.09277 -0.09277 -0.09277 -0.09277 -0.09277 -0.09277 -0.09277 c -0.100067,-0.0034 -0.193879,0.003 -0.281438,0.01781 -0.08756,0.01483 -0.168862,0.03815 -0.243912,0.06874 -0.07505,0.03059 -0.143846,0.06846 -0.206388,0.112398 -0.06254,0.04393 -0.118829,0.09393 -0.168862,0.14878 -0.05003,0.05485 -0.09381,0.114547 -0.131338,0.177885 -0.03753,0.06334 -0.0688,0.130313 -0.09381,0.199714 -0.02502,0.0694 -0.04378,0.141227 -0.05629,0.214266 -0.01251,0.07304 -0.01876,0.147291 -0.01876,0.221543 0,0.07425 0.0063,0.148504 0.01876,0.221543 0.01251,0.07304 0.03127,0.144865 0.05629,0.214266 0.02502,0.0694 0.05629,0.136377 0.09381,0.199714 0.03752,0.06334 0.08131,0.123037 0.131338,0.177885 0.05003,0.05485 0.106321,0.104846 0.168862,0.14878 0.06254,0.04393 0.131338,0.0818 0.206388,0.112398 0.07505,0.03059 0.156354,0.05391 0.243912,0.06874 0.08756,0.01483 0.181371,0.02117 0.281438,0.01781 h 0.09277 0.09277 0.09277 0.09277 0.09277 0.09277 0.09277 0.09277 0.09277 0.09277 0.09277 0.09277 0.09277 0.09277 0.09277 0.09277 v 0.09277 0.09277 0.09277 0.09277 0.09277 0.09277 0.09277 0.09277 0.09277 0.09277 0.09277 0.09277 0.09277 0.09277 0.09277 0.09277 c -0.0034,0.100067 0.003,0.193879 0.01781,0.281438 0.01483,0.08756 0.03815,0.168862 0.06874,0.243912 0.03059,0.07505 0.06846,0.143846 0.112398,0.206388 0.04393,0.06254 0.09393,0.118829 0.14878,0.168862 0.05485,0.05003 0.114547,0.09381 0.177885,0.131338 0.06334,0.03753 0.130313,0.0688 0.199714,0.09381 0.0694,0.02502 0.141227,0.04378 0.214266,0.05629 0.07304,0.01251 0.147291,0.01876 0.221543,0.01876 0.07425,0 0.148504,-0.0063 0.221543,-0.01876 0.07304,-0.01251 0.144865,-0.03127 0.214266,-0.05629 0.0347,-0.01251 0.06879,-0.02658 0.102131,-0.04222 0.03334,-0.01564 0.06591,-0.03283 0.09758,-0.05159 0.06334,-0.03752 0.123037,-0.08131 0.177885,-0.131338 0.05485,-0.05003 0.104846,-0.106321 0.14878,-0.168862 0.04393,-0.06254 0.0818,-0.131338 0.112398,-0.206388 0.03059,-0.07505 0.05391,-0.156354 0.06874,-0.243912 0.01483,-0.08756 0.02117,-0.181371 0.01781,-0.281438 v -0.09277 -0.09277 -0.09277 -0.09277 -0.09277 -0.09277 -0.09277 -0.09277 -0.09277 -0.09277 -0.09277 -0.09277 -0.09277 -0.09277 -0.09277 -0.09277 h 0.09277 0.09277 0.09277 0.09277 0.09277 0.09277 0.09277 0.09277 0.09277 0.09277 0.09277 0.09277 0.09277 0.09277 0.09277 0.09277 c 0.100067,0.0034 0.193879,-0.003 0.281438,-0.01781 0.08756,-0.01483 0.168862,-0.03815 0.243912,-0.06874 0.07505,-0.03059 0.143846,-0.06846 0.206388,-0.112398 0.06254,-0.04393 0.118829,-0.09393 0.168862,-0.14878 0.05003,-0.05485 0.09381,-0.114547 0.131338,-0.177885 0.03753,-0.06334 0.06879,-0.130313 0.09381,-0.199714 0.02502,-0.0694 0.04378,-0.141227 0.05629,-0.214266 0.01251,-0.07304 0.01876,-0.147291 0.01876,-0.221543 0,-0.07425 -0.0063,-0.148504 -0.01876,-0.221543 -0.01251,-0.07304 -0.03127,-0.144865 -0.05629,-0.214266 -0.02502,-0.0694 -0.05629,-0.136377 -0.09381,-0.199714 -0.03753,-0.06334 -0.08131,-0.123037 -0.131338,-0.177885 -0.05003,-0.05485 -0.106321,-0.104846 -0.168862,-0.14878 -0.06254,-0.04393 -0.131338,-0.0818 -0.206388,-0.112398 -0.07505,-0.03059 -0.156354,-0.05391 -0.243912,-0.06874 -0.08756,-0.01483 -0.181371,-0.02117 -0.281438,-0.01781 h -0.09277 -0.09277 -0.09277 -0.09277 -0.09277 -0.09277 -0.09277 -0.09277 -0.09277 -0.09277 -0.09277 -0.09277 -0.09277 -0.09277 -0.09277 -0.09277 v -0.09277 -0.09277 -0.09277 -0.09277 -0.09277 -0.09277 -0.09277 -0.09277 -0.09277 -0.09277 -0.09277 -0.09277 -0.09277 -0.09277 -0.09277 -0.09277 c 5.67e-4,-0.04093 -9.87e-4,-0.08139 -0.0046,-0.121267 -0.0036,-0.03988 -0.0092,-0.07918 -0.01666,-0.117792 -0.0075,-0.03862 -0.01692,-0.07655 -0.02815,-0.113699 -0.01123,-0.03715 -0.02427,-0.07351 -0.03902,-0.10899 -0.01475,-0.03548 -0.03121,-0.07006 -0.04928,-0.103663 -0.01807,-0.0336 -0.03774,-0.06621 -0.05891,-0.09772 -0.02117,-0.03151 -0.04385,-0.06194 -0.06793,-0.09116 -0.02408,-0.02923 -0.04956,-0.05725 -0.07633,-0.08398 -0.02677,-0.02673 -0.05485,-0.05216 -0.08411,-0.07619 -0.02926,-0.02403 -0.05972,-0.04666 -0.09127,-0.06778 -0.03155,-0.02112 -0.06419,-0.04074 -0.09782,-0.05875 -0.03363,-0.01801 -0.06824,-0.03441 -0.103745,-0.0491 -0.0355,-0.01469 -0.07189,-0.02768 -0.109054,-0.03884 -0.03717,-0.01117 -0.07512,-0.02053 -0.113746,-0.02797 -0.03863,-0.0074 -0.07794,-0.01296 -0.117819,-0.01647 -0.03988,-0.0035 -0.08034,-0.005 -0.121275,-0.0044 z"
                 style="color:#000000;font-style:normal;font-variant:normal;font-weight:normal;font-stretch:normal;font-size:medium;line-height:normal;font-family:sans-serif;font-variant-ligatures:normal;font-variant-position:normal;font-variant-caps:normal;font-variant-numeric:normal;font-variant-alternates:normal;font-feature-settings:normal;text-indent:0;text-align:start;text-decoration:none;text-decoration-line:none;text-decoration-style:solid;text-decoration-color:#000000;letter-spacing:normal;word-spacing:normal;text-transform:none;writing-mode:lr-tb;direction:ltr;text-orientation:mixed;dominant-baseline:auto;baseline-shift:baseline;text-anchor:start;white-space:normal;shape-padding:0;clip-rule:nonzero;display:inline;overflow:visible;visibility:visible;opacity:1;isolation:auto;mix-blend-mode:normal;color-interpolation:sRGB;color-interpolation-filters:linearRGB;solid-color:#000000;solid-opacity:1;vector-effect:none;fill:#ff7d85;fill-opacity:1;fill-rule:nonzero;stroke:none;stroke-width:2.32334399;stroke-linecap:round;stroke-linejoin:round;stroke-miterlimit:4;stroke-dasharray:none;stroke-dashoffset:0;stroke-opacity:1;color-rendering:auto;image-rendering:auto;shape-rendering:auto;text-rendering:auto;enable-background:accumulate" />
            </g>
          </g>
        </g>
        <text
           xml:space="preserve"
           style="font-style:normal;font-variant:normal;font-weight:900;font-stretch:normal;font-size:2.98978853px;line-height:1.25;font-family:'Gen Shin Gothic';-inkscape-font-specification:'Gen Shin Gothic, Heavy';font-variant-ligatures:normal;font-variant-caps:normal;font-variant-numeric:normal;font-feature-settings:normal;text-align:start;letter-spacing:0px;word-spacing:0px;writing-mode:lr-tb;text-anchor:start;fill:#181818;fill-opacity:1;stroke:none;stroke-width:0.07474472"
           x="198.80418"
           y="170.14514"
           id="text1558"><tspan
             sodipodi:role="line"
             id="tspan1556"
             x="198.80418"
             y="170.14514"
             style="font-style:normal;font-variant:normal;font-weight:900;font-stretch:normal;font-size:2.98978853px;font-family:'Gen Shin Gothic';-inkscape-font-specification:'Gen Shin Gothic, Heavy';font-variant-ligatures:normal;font-variant-caps:normal;font-variant-numeric:normal;font-feature-settings:normal;text-align:start;writing-mode:lr-tb;text-anchor:start;fill:#181818;fill-opacity:1;stroke-width:0.07474472">join</tspan></text>
        <text
           xml:space="preserve"
           style="font-style:normal;font-variant:normal;font-weight:bold;font-stretch:normal;font-size:1.17960989px;line-height:1.25;font-family:'Gen Shin Gothic';-inkscape-font-specification:'Gen Shin Gothic, Bold';font-variant-ligatures:normal;font-variant-caps:normal;font-variant-numeric:normal;font-feature-settings:normal;text-align:start;letter-spacing:0px;word-spacing:0px;writing-mode:lr-tb;text-anchor:start;fill:#181818;fill-opacity:1;stroke:none;stroke-width:0.02949025"
           x="194.49641"
           y="172.15582"
           id="text1562"><tspan
             sodipodi:role="line"
             id="tspan1560"
             x="194.49641"
             y="172.15582"
             style="font-style:normal;font-variant:normal;font-weight:bold;font-stretch:normal;font-size:1.17960989px;font-family:'Gen Shin Gothic';-inkscape-font-specification:'Gen Shin Gothic, Bold';font-variant-ligatures:normal;font-variant-caps:normal;font-variant-numeric:normal;font-feature-settings:normal;text-align:start;writing-mode:lr-tb;text-anchor:start;fill:#181818;fill-opacity:1;stroke-width:0.02949025">デザインで世界を変えよう</tspan></text>
      </g>
    </g>
  </g>
</svg>
