<?xml version="1.0" encoding="UTF-8" standalone="no"?>
<!-- Created with Inkscape (http://www.inkscape.org/) -->

<svg
   xmlns:dc="http://purl.org/dc/elements/1.1/"
   xmlns:cc="http://creativecommons.org/ns#"
   xmlns:rdf="http://www.w3.org/1999/02/22-rdf-syntax-ns#"
   xmlns:svg="http://www.w3.org/2000/svg"
   xmlns="http://www.w3.org/2000/svg"
   xmlns:sodipodi="http://sodipodi.sourceforge.net/DTD/sodipodi-0.dtd"
   xmlns:inkscape="http://www.inkscape.org/namespaces/inkscape"
   width="111.24789"
   height="22.459047"
   viewBox="0 0 29.434342 5.9422898"
   version="1.1"
   id="svg1029"
   inkscape:version="0.92.4 (5da689c313, 2019-01-14)"
   sodipodi:docname="zaprototype_logo.svg">
  <defs
     id="defs1023" />
  <sodipodi:namedview
     id="base"
     pagecolor="#ffffff"
     bordercolor="#666666"
     borderopacity="1.0"
     inkscape:pageopacity="0.0"
     inkscape:pageshadow="2"
     inkscape:zoom="3.959798"
     inkscape:cx="38.728326"
     inkscape:cy="13.386002"
     inkscape:document-units="mm"
     inkscape:current-layer="layer1"
     showgrid="false"
     inkscape:pagecheckerboard="true"
     inkscape:window-width="1920"
     inkscape:window-height="1027"
     inkscape:window-x="-8"
     inkscape:window-y="-8"
     inkscape:window-maximized="1"
     showborder="false"
     fit-margin-top="0"
     fit-margin-left="0"
     fit-margin-right="0"
     fit-margin-bottom="0"
     units="px" />
  <metadata
     id="metadata1026">
    <rdf:RDF>
      <cc:Work
         rdf:about="">
        <dc:format>image/svg+xml</dc:format>
        <dc:type
           rdf:resource="http://purl.org/dc/dcmitype/StillImage" />
        <dc:title></dc:title>
      </cc:Work>
    </rdf:RDF>
  </metadata>
  <g
     inkscape:label="レイヤー 1"
     inkscape:groupmode="layer"
     id="layer1"
     transform="translate(163.63979,-68.755046)">
    <g
       transform="translate(-122.46429,-15.194646)"
       id="g955">
      <g
         inkscape:export-ydpi="542.59442"
         inkscape:export-xdpi="542.59442"
         inkscape:export-filename="C:\Users\yamam\zaprototype-logo-t.png"
         transform="matrix(0.52272716,0,0,0.52272716,-12.628023,42.83316)"
         id="text1581"
         style="font-style:normal;font-variant:normal;font-weight:900;font-stretch:normal;font-size:10.58333302px;line-height:1.25;font-family:Reef;-inkscape-font-specification:'Reef, Heavy';font-variant-ligatures:normal;font-variant-caps:normal;font-variant-numeric:normal;font-feature-settings:normal;text-align:start;letter-spacing:0.79374999px;word-spacing:0px;writing-mode:lr-tb;text-anchor:start;fill:#191919;fill-opacity:1;stroke:#191919;stroke-width:0.26458332;stroke-miterlimit:4;stroke-dasharray:none;stroke-opacity:1"
         aria-label="zapr[">
        <path
           id="path1782"
           style="font-style:normal;font-variant:normal;font-weight:900;font-stretch:normal;font-size:10.58333302px;font-family:Reef;-inkscape-font-specification:'Reef, Heavy';font-variant-ligatures:normal;font-variant-caps:normal;font-variant-numeric:normal;font-feature-settings:normal;text-align:start;letter-spacing:0.79374999px;writing-mode:lr-tb;text-anchor:start;fill:#191919;fill-opacity:1;stroke:#191919;stroke-width:0.26458332;stroke-miterlimit:4;stroke-dasharray:none;stroke-opacity:1"
           d="m -53.09536,86.846708 2.356445,-3.534668 q 0.108521,-0.170532 0.06718,-0.366903 -0.03617,-0.19637 -0.201538,-0.304891 -0.118856,-0.07751 -0.26355,-0.08268 h -2.857707 q -0.201538,0 -0.341064,0.144694 -0.144694,0.139526 -0.144694,0.341064 0,0.196371 0.144694,0.341065 0.139526,0.139526 0.341064,0.139526 h 1.948202 l -2.351278,3.539836 q -0.113688,0.165364 -0.07235,0.361735 0.04134,0.19637 0.206706,0.304891 0.09302,0.06718 0.217041,0.07751 0.02584,0.0052 0.05168,0.0052 h 2.852539 q 0.201538,0 0.341065,-0.139526 0.139526,-0.144694 0.139526,-0.346233 0,-0.19637 -0.139526,-0.341064 -0.139527,-0.139526 -0.341065,-0.139526 z"
           inkscape:connector-curvature="0" />
        <path
           sodipodi:nodetypes="scssssscsscssccsssssscsssssc"
           inkscape:connector-curvature="0"
           id="path1784"
           style="font-style:normal;font-variant:normal;font-weight:900;font-stretch:normal;font-size:10.58333302px;font-family:Reef;-inkscape-font-specification:'Reef, Heavy';font-variant-ligatures:normal;font-variant-caps:normal;font-variant-numeric:normal;font-feature-settings:normal;text-align:start;letter-spacing:0.79374999px;writing-mode:lr-tb;text-anchor:start;fill:#191919;fill-opacity:1;stroke:#191919;stroke-width:0.26458332;stroke-miterlimit:4;stroke-dasharray:none;stroke-opacity:1"
           d="m -45.945409,85.663317 c 0,0.327285 -0.117133,0.606338 -0.3514,0.837159 -0.230821,0.230821 -0.508151,0.346232 -0.83199,0.346232 h -0.03617 c -0.327284,0 -0.606337,-0.115411 -0.837158,-0.346232 -0.230821,-0.230821 -0.346232,-0.509874 -0.346232,-0.837159 v -0.987019 c 0,-0.327284 0.115411,-0.606337 0.346232,-0.837159 0.230821,-0.230821 0.509874,-0.346232 0.837158,-0.346232 h 0.03617 c 0.323839,0 0.601169,0.115411 0.83199,0.346232 0.234267,0.230822 0.3514,0.509875 0.3514,0.837159 z m 0.480591,-3.136759 c -1.700151,0 0,0 -1.700151,0 -0.592556,0 -1.098985,0.210151 -1.519287,0.630453 -0.420301,0.420301 -0.630452,0.92673 -0.630452,1.519287 v 0.987019 c 0,0.592557 0.210151,1.098986 0.630452,1.519287 0.420302,0.420302 0.926731,0.630453 1.519287,0.630453 h 0.03617 c 0.437527,0 0.837158,-0.122301 1.198893,-0.366903 0.05857,0.244602 0.213596,0.366903 0.465088,0.366903 0.134359,0 0.248047,-0.04651 0.341064,-0.139526 0.09646,-0.09646 0.144694,-0.211874 0.144694,-0.346233 v -4.320149 c 0,-0.130914 -0.04823,-0.244602 -0.144694,-0.341065 -0.09302,-0.09302 -0.206705,-0.139526 -0.341064,-0.139526 z" />
        <path
           sodipodi:nodetypes="sssscsscsssssscscsssssccccsscs"
           inkscape:connector-curvature="0"
           id="path1786"
           style="font-style:normal;font-variant:normal;font-weight:900;font-stretch:normal;font-size:10.58333302px;font-family:Reef;-inkscape-font-specification:'Reef, Heavy';font-variant-ligatures:normal;font-variant-caps:normal;font-variant-numeric:normal;font-feature-settings:normal;text-align:start;letter-spacing:0.79374999px;writing-mode:lr-tb;text-anchor:start;fill:#191919;fill-opacity:1;stroke:#191919;stroke-width:0.26458332;stroke-miterlimit:4;stroke-dasharray:none;stroke-opacity:1"
           d="m -42.283617,84.686633 c 0,-0.327284 0.115411,-0.606337 0.346232,-0.837158 0.230821,-0.230821 0.509874,-0.346232 0.837158,-0.346232 h 0.03617 c 0.323839,0 0.60117,0.115411 0.831991,0.346232 0.234267,0.230821 0.3514,0.509874 0.3514,0.837158 v 0.98702 c 0,0.327284 -0.117133,0.606337 -0.3514,0.837158 -0.230821,0.230821 -0.508152,0.346232 -0.831991,0.346232 h -0.03617 c -0.327284,0 -0.606337,-0.115411 -0.837158,-0.346232 -0.230821,-0.230821 -0.346232,-0.509874 -0.346232,-0.837158 z m -0.480591,5.157308 c 0.130913,0 0.244601,-0.04651 0.341064,-0.139527 0.09302,-0.09646 0.139527,-0.211873 0.139527,-0.346232 v -1.891357 c 0.358289,0.237711 0.752753,0.356567 1.18339,0.356567 h 0.03617 c 0.592557,0 1.098986,-0.210151 1.519287,-0.630452 0.420302,-0.420302 0.630453,-0.926731 0.630453,-1.519287 v -0.98702 c 0,-0.592557 -0.210151,-1.098986 -0.630453,-1.519287 -0.420301,-0.420302 -0.92673,-0.630453 -1.519287,-0.630453 -1.700151,0 -1.288678,0.0079 -1.700151,0 -0.134359,0 -0.249769,0.04651 -0.346232,0.139527 -0.09302,0.09646 -0.139527,0.210151 -0.139527,0.341064 v 6.340698 c 0,0.134359 0.04651,0.249769 0.139527,0.346232 0.09646,0.09302 0.211873,0.139527 0.346232,0.139527 z" />
        <path
           sodipodi:nodetypes="cssscscsscsscsccc"
           inkscape:connector-curvature="0"
           id="path1788"
           style="font-style:normal;font-variant:normal;font-weight:900;font-stretch:normal;font-size:10.58333302px;font-family:Reef;-inkscape-font-specification:'Reef, Heavy';font-variant-ligatures:normal;font-variant-caps:normal;font-variant-numeric:normal;font-feature-settings:normal;text-align:start;letter-spacing:0.79374999px;writing-mode:lr-tb;text-anchor:start;fill:#191919;fill-opacity:1;stroke:#191919;stroke-width:0.26458332;stroke-miterlimit:4;stroke-dasharray:none;stroke-opacity:1"
           d="m -36.802814,82.531731 c -0.134359,0 -0.249769,0.04823 -0.346232,0.144694 -0.09302,0.09302 -0.139526,0.206705 -0.139526,0.341064 v 4.309814 c 0,0.134359 0.04651,0.24977 0.139526,0.346233 0.09646,0.09302 0.211873,0.139526 0.346232,0.139526 0.130914,0 0.244602,-0.04651 0.341065,-0.139526 0.09302,-0.09646 0.139526,-0.211874 0.139526,-0.346233 v -2.635497 c 0,-0.323839 0.115411,-0.60117 0.346232,-0.831991 0.230821,-0.234267 0.509874,-0.3514 0.837158,-0.3514 h 0.0052 c 0.134359,0 0.248047,-0.04651 0.341064,-0.139526 0.09646,-0.09302 0.144694,-0.206706 0.144694,-0.341065 0,-0.134359 -0.04823,-0.248047 -0.144694,-0.341064 -0.09302,-0.09646 -0.206705,-0.144694 -0.341064,-0.144694 -0.556394,-0.0034 -1.112787,-0.0069 -1.669181,-0.01034 z" />
        <path
           id="path1790"
           style="font-style:normal;font-variant:normal;font-weight:900;font-stretch:normal;font-size:10.58333302px;font-family:Reef;-inkscape-font-specification:'Reef, Heavy';font-variant-ligatures:normal;font-variant-caps:normal;font-variant-numeric:normal;font-feature-settings:normal;text-align:start;letter-spacing:0.79374999px;writing-mode:lr-tb;text-anchor:start;fill:#191919;fill-opacity:1;stroke:#191919;stroke-width:0.26458332;stroke-miterlimit:4;stroke-dasharray:none;stroke-opacity:1"
           d="m -32.055819,88.864733 v -7.699788 h 1.188558 q 0.201538,0 0.341065,-0.144694 0.144694,-0.139526 0.144694,-0.341064 0,-0.196371 -0.144694,-0.341065 -0.139527,-0.139526 -0.341065,-0.139526 h -1.669148 q -0.201538,0 -0.346232,0.139526 -0.139527,0.144694 -0.139527,0.341065 v 8.666137 q 0,0.201538 0.139527,0.346232 0.144694,0.139527 0.346232,0.139527 h 1.669148 q 0.201538,0 0.341065,-0.139527 0.144694,-0.144694 0.144694,-0.346232 0,-0.19637 -0.144694,-0.341064 -0.139527,-0.139527 -0.341065,-0.139527 z"
           inkscape:connector-curvature="0" />
      </g>
      <g
         inkscape:export-ydpi="542.59442"
         inkscape:export-xdpi="542.59442"
         inkscape:export-filename="C:\Users\yamam\zaprototype-logo-t.png"
         transform="matrix(0.52272716,0,0,0.52272716,-13.79683,44.298238)"
         style="stroke:#ff6972;stroke-width:1.85208333;stroke-miterlimit:4;stroke-dasharray:none;stroke-opacity:1"
         id="g1715">
        <circle
           style="opacity:1;fill:none;fill-opacity:1;stroke:#ff6972;stroke-width:1.85208333;stroke-linecap:round;stroke-linejoin:round;stroke-miterlimit:4;stroke-dasharray:none;stroke-opacity:1;paint-order:fill markers stroke"
           id="path1583"
           cx="-25.4"
           cy="82.187164"
           r="2.0591736" />
        <g
           id="g1591"
           style="stroke:#ff6972;stroke-width:2.32334399;stroke-linecap:round;stroke-linejoin:round;stroke-miterlimit:4;stroke-dasharray:none;stroke-opacity:1"
           transform="matrix(0.79716281,0,0,0.79716281,-4.2858834,26.817564)">
          <path
             inkscape:connector-curvature="0"
             d="m -18.520833,66.812503 v 5.291667 m -2.645833,-2.645834 H -15.875"
             style="fill:none;stroke:#ff6972;stroke-width:2.32334399;stroke-linecap:round;stroke-linejoin:round;stroke-miterlimit:4;stroke-dasharray:none;stroke-opacity:1"
             id="path1587" />
        </g>
      </g>
      <g
         inkscape:export-ydpi="542.59442"
         inkscape:export-xdpi="542.59442"
         inkscape:export-filename="C:\Users\yamam\zaprototype-logo-t.png"
         transform="matrix(0.52272716,0,0,0.52272716,-12.628023,42.83316)"
         id="text1581-0"
         style="font-style:normal;font-variant:normal;font-weight:900;font-stretch:normal;font-size:10.58333302px;line-height:1.25;font-family:Reef;-inkscape-font-specification:'Reef, Heavy';font-variant-ligatures:normal;font-variant-caps:normal;font-variant-numeric:normal;font-feature-settings:normal;text-align:start;letter-spacing:0px;word-spacing:0px;writing-mode:lr-tb;text-anchor:start;fill:#191919;fill-opacity:1;stroke:#191919;stroke-width:0.26458332;stroke-miterlimit:4;stroke-dasharray:none;stroke-opacity:1"
         aria-label="]ype">
        <path
           id="path1773"
           style="font-style:normal;font-variant:normal;font-weight:900;font-stretch:normal;font-size:10.58333302px;font-family:Reef;-inkscape-font-specification:'Reef, Heavy';font-variant-ligatures:normal;font-variant-caps:normal;font-variant-numeric:normal;font-feature-settings:normal;text-align:start;letter-spacing:0.79374999px;writing-mode:lr-tb;text-anchor:start;fill:#191919;fill-opacity:1;stroke:#191919;stroke-width:0.26458332;stroke-miterlimit:4;stroke-dasharray:none;stroke-opacity:1"
           d="m -18.154381,88.864733 q -0.201538,0 -0.346232,0.139527 -0.139526,0.144694 -0.139526,0.341064 0,0.201538 0.139526,0.346232 0.144694,0.139527 0.346232,0.139527 h 1.669149 q 0.201538,0 0.341064,-0.139527 0.144694,-0.144694 0.144694,-0.346232 v -8.666137 q 0,-0.196371 -0.144694,-0.341065 -0.139526,-0.139526 -0.341064,-0.139526 h -1.669149 q -0.201538,0 -0.346232,0.139526 -0.139526,0.144694 -0.139526,0.341065 0,0.201538 0.139526,0.341064 0.144694,0.144694 0.346232,0.144694 h 1.188558 v 7.699788 z"
           inkscape:connector-curvature="0" />
        <path
           id="path1775"
           style="font-style:normal;font-variant:normal;font-weight:900;font-stretch:normal;font-size:10.58333302px;font-family:Reef;-inkscape-font-specification:'Reef, Heavy';font-variant-ligatures:normal;font-variant-caps:normal;font-variant-numeric:normal;font-feature-settings:normal;text-align:start;letter-spacing:0.79374999px;writing-mode:lr-tb;text-anchor:start;fill:#191919;fill-opacity:1;stroke:#191919;stroke-width:0.26458332;stroke-miterlimit:4;stroke-dasharray:none;stroke-opacity:1"
           d="m -10.451492,82.598905 q -0.186035,-0.07235 -0.366903,0.01033 -0.180867,0.08268 -0.253214,0.268718 l -1.167888,3.079915 -1.173055,-3.079915 q -0.06718,-0.186035 -0.253214,-0.268718 -0.180868,-0.08268 -0.366903,-0.01033 -0.191203,0.07235 -0.268717,0.253215 -0.08268,0.186035 -0.0155,0.37207 l 1.55546,4.087606 -0.74414,1.92753 q -0.07235,0.186036 0.01033,0.366903 0.08268,0.186035 0.268717,0.253215 0.186036,0.07235 0.366903,-0.0052 0.186035,-0.08268 0.258382,-0.268717 l 2.43396,-6.361369 q 0.06718,-0.186035 -0.01033,-0.37207 -0.08268,-0.180868 -0.273885,-0.253215 z"
           inkscape:connector-curvature="0" />
        <path
           sodipodi:nodetypes="sssscsscsssssscscssssssscccsscs"
           inkscape:connector-curvature="0"
           id="path1777"
           style="font-style:normal;font-variant:normal;font-weight:900;font-stretch:normal;font-size:10.58333302px;font-family:Reef;-inkscape-font-specification:'Reef, Heavy';font-variant-ligatures:normal;font-variant-caps:normal;font-variant-numeric:normal;font-feature-settings:normal;text-align:start;letter-spacing:0.79374999px;writing-mode:lr-tb;text-anchor:start;fill:#191919;fill-opacity:1;stroke:#191919;stroke-width:0.26458332;stroke-miterlimit:4;stroke-dasharray:none;stroke-opacity:1"
           d="m -7.6630319,84.686633 c 0,-0.327284 0.1154107,-0.606337 0.346232,-0.837158 0.2308214,-0.230821 0.5098741,-0.346232 0.8371582,-0.346232 h 0.036174 c 0.323839,0 0.6011692,0.115411 0.8319906,0.346232 0.2342665,0.230821 0.3513997,0.509874 0.3513997,0.837158 v 0.98702 c 0,0.327284 -0.1171332,0.606337 -0.3513997,0.837158 -0.2308214,0.230821 -0.5081516,0.346232 -0.8319906,0.346232 h -0.036174 c -0.3272841,0 -0.6063368,-0.115411 -0.8371582,-0.346232 -0.2308213,-0.230821 -0.346232,-0.509874 -0.346232,-0.837158 z m -0.4805908,5.157308 c 0.1309136,0 0.2446017,-0.04651 0.3410644,-0.139527 0.093018,-0.09646 0.1395264,-0.211873 0.1395264,-0.346232 v -1.891357 c 0.3582899,0.237711 0.7527533,0.356567 1.1833902,0.356567 h 0.036174 c 0.5925564,0 1.0989854,-0.210151 1.5192871,-0.630452 0.4203016,-0.420302 0.6304524,-0.926731 0.6304524,-1.519287 v -0.98702 c 0,-0.592557 -0.2101508,-1.098986 -0.6304524,-1.519287 -0.4203017,-0.420302 -0.9267307,-0.630453 -1.5192871,-0.630453 h -0.036174 c -1.663981,0 -1.2531008,0.0078 -1.663981,0 -0.1343587,0 -0.2497694,0.04651 -0.3462321,0.139527 -0.093018,0.09646 -0.1395264,0.210151 -0.1395264,0.341064 v 6.340698 c 0,0.134359 0.046509,0.249769 0.1395264,0.346232 0.096463,0.09302 0.2118734,0.139527 0.3462321,0.139527 z" />
        <path
           id="path1779"
           style="font-style:normal;font-variant:normal;font-weight:900;font-stretch:normal;font-size:10.58333302px;font-family:Reef;-inkscape-font-specification:'Reef, Heavy';font-variant-ligatures:normal;font-variant-caps:normal;font-variant-numeric:normal;font-feature-settings:normal;text-align:start;letter-spacing:0.79374999px;writing-mode:lr-tb;text-anchor:start;fill:#191919;fill-opacity:1;stroke:#191919;stroke-width:0.26458332;stroke-miterlimit:4;stroke-dasharray:none;stroke-opacity:1"
           d="m -1.8049914,84.691801 q 0,-0.485759 0.346232,-0.831991 0.3462321,-0.346232 0.83715822,-0.346232 h 0.0361735 q 0.48059081,0 0.83199054,0.346232 0.34106444,0.3514 0.34623208,0.837158 H -1.8049914 Z m 3.3693032,0 q 0,-0.186036 -0.036174,-0.366903 Q 1.4919648,84.097522 1.4041149,83.885648 1.243918,83.492907 0.94419467,83.188016 0.31374222,82.547229 -0.58542768,82.547229 h -0.0361735 q -0.88883462,0 -1.51928702,0.630452 -0.6304525,0.625285 -0.6304525,1.51412 v 0.992187 0 q 0.010335,0.883667 0.6356201,1.503784 0.6304525,0.625285 1.51411942,0.625285 h 0.0361735 q 1.08520505,0 1.73116048,-0.878499 0.144694,-0.196371 0.072347,-0.434082 -0.072347,-0.232544 -0.30489099,-0.310059 -0.3358968,-0.118856 -0.54260252,0.165365 -0.35656737,0.490926 -0.95601397,0.490926 h -0.0361735 q -0.49092612,0 -0.83715822,-0.346232 -0.346232,-0.346232 -0.346232,-0.837159 l 2.40295399,-0.0052 q 0.55293781,0 0.83199051,-0.480591 0.1343587,-0.222209 0.1343587,-0.485758 z"
           inkscape:connector-curvature="0" />
      </g>
      <g
         inkscape:export-ydpi="542.59442"
         inkscape:export-xdpi="542.59442"
         inkscape:export-filename="C:\Users\yamam\zaprototype-logo-t.png"
         transform="matrix(0.52272716,0,0,0.52272716,-12.628023,42.83316)"
         id="g1769">
        <path
           sodipodi:nodetypes="ccccccccscccccccccccccccscccscccscccccccccc"
           inkscape:connector-curvature="0"
           id="path1765"
           transform="scale(0.26458333)"
           d="m -53.154297,297.28906 c -1.143111,0.0754 -1.575093,0.3476 -2.169926,0.79901 l -0.002,0.002 -0.002,0.002 c -0.585275,0.46033 -1.014396,1.06364 -1.257813,1.76758 h -0.002 v 0.002 c -0.140371,0.41175 -0.05095,0.90456 0.205079,1.25 0.254361,0.34522 0.695113,0.56445 1.123046,0.56445 0.279988,0 0.569825,-0.0692 0.810547,-0.23828 0.267696,-0.16584 0.421373,-0.43532 0.513672,-0.7168 0.123664,-0.45793 0.538946,-0.77639 1.013672,-0.77734 0.581157,-3.4e-4 1.052521,0.47014 1.052734,1.05078 0.0344,0.25283 -0.182335,0.61272 -0.224611,0.65629 -0.06773,0.0729 -0.20508,0.22005 -0.476562,0.51172 -0.542975,0.58332 -1.628224,1.74942 -3.804688,4.0918 l -0.03711,0.041 -0.0293,0.0449 c -0.195553,0.30724 -0.26082,0.70697 -0.175782,1.05664 0.08258,0.34356 0.303723,0.66254 0.597657,0.85547 l 0.01172,0.008 0.01367,0.008 c 0.204133,0.12064 0.44314,0.19183 0.685547,0.20117 h 0.01172 4.761719 c 0.359206,0 0.727328,-0.15122 0.980468,-0.4043 l 0.0039,-0.004 0.0039,-0.004 c 0.248882,-0.2581 0.394531,-0.62484 0.394531,-0.98047 0,-0.35357 -0.147592,-0.71655 -0.394531,-0.97265 l -0.0039,-0.004 -0.0039,-0.004 c -0.253189,-0.25319 -0.621285,-0.40429 -0.980468,-0.40429 h -1.703125 c 0.09025,-0.0827 0.08091,-0.0673 0.175781,-0.15625 0.7405,-0.6948 1.587233,-1.5417 2.076172,-2.32032 0.397837,-0.63352 0.865362,-1.42803 0.826172,-2.375 -0.03742,-0.89968 -0.441641,-1.75219 -1.095703,-2.40625 l -0.03516,-0.0371 -0.0059,-0.004 c -0.631311,-0.57187 -1.218734,-0.86179 -2.039062,-1.04298 -0.297724,-0.069 -0.555834,-0.0592 -0.81837,-0.0607 z"
           style="opacity:1;fill:#ff6972;fill-opacity:1;stroke:none;stroke-width:0.01875;stroke-linecap:round;stroke-linejoin:round;stroke-miterlimit:4;stroke-dasharray:none;stroke-opacity:1;paint-order:fill markers stroke" />
      </g>
    </g>
    <g
       id="g1648"
       transform="translate(-122.46429,-15.194646)">
      <g
         aria-label="zapr["
         style="font-style:normal;font-variant:normal;font-weight:900;font-stretch:normal;font-size:10.58333302px;line-height:1.25;font-family:Reef;-inkscape-font-specification:'Reef, Heavy';font-variant-ligatures:normal;font-variant-caps:normal;font-variant-numeric:normal;font-feature-settings:normal;text-align:start;letter-spacing:0.79374999px;word-spacing:0px;writing-mode:lr-tb;text-anchor:start;fill:#191919;fill-opacity:1;stroke:#191919;stroke-width:0.26458332;stroke-miterlimit:4;stroke-dasharray:none;stroke-opacity:1"
         id="g1624"
         transform="matrix(0.52272716,0,0,0.52272716,-12.628023,42.83316)"
         inkscape:export-filename="C:\Users\yamam\zaprototype-logo-t.png"
         inkscape:export-xdpi="542.59442"
         inkscape:export-ydpi="542.59442">
        <path
           inkscape:connector-curvature="0"
           d="m -53.09536,86.846708 2.356445,-3.534668 q 0.108521,-0.170532 0.06718,-0.366903 -0.03617,-0.19637 -0.201538,-0.304891 -0.118856,-0.07751 -0.26355,-0.08268 h -2.857707 q -0.201538,0 -0.341064,0.144694 -0.144694,0.139526 -0.144694,0.341064 0,0.196371 0.144694,0.341065 0.139526,0.139526 0.341064,0.139526 h 1.948202 l -2.351278,3.539836 q -0.113688,0.165364 -0.07235,0.361735 0.04134,0.19637 0.206706,0.304891 0.09302,0.06718 0.217041,0.07751 0.02584,0.0052 0.05168,0.0052 h 2.852539 q 0.201538,0 0.341065,-0.139526 0.139526,-0.144694 0.139526,-0.346233 0,-0.19637 -0.139526,-0.341064 -0.139527,-0.139526 -0.341065,-0.139526 z"
           style="font-style:normal;font-variant:normal;font-weight:900;font-stretch:normal;font-size:10.58333302px;font-family:Reef;-inkscape-font-specification:'Reef, Heavy';font-variant-ligatures:normal;font-variant-caps:normal;font-variant-numeric:normal;font-feature-settings:normal;text-align:start;letter-spacing:0.79374999px;writing-mode:lr-tb;text-anchor:start;fill:#191919;fill-opacity:1;stroke:#191919;stroke-width:0.26458332;stroke-miterlimit:4;stroke-dasharray:none;stroke-opacity:1"
           id="path1614" />
        <path
           d="m -45.945409,85.663317 c 0,0.327285 -0.117133,0.606338 -0.3514,0.837159 -0.230821,0.230821 -0.508151,0.346232 -0.83199,0.346232 h -0.03617 c -0.327284,0 -0.606337,-0.115411 -0.837158,-0.346232 -0.230821,-0.230821 -0.346232,-0.509874 -0.346232,-0.837159 v -0.987019 c 0,-0.327284 0.115411,-0.606337 0.346232,-0.837159 0.230821,-0.230821 0.509874,-0.346232 0.837158,-0.346232 h 0.03617 c 0.323839,0 0.601169,0.115411 0.83199,0.346232 0.234267,0.230822 0.3514,0.509875 0.3514,0.837159 z m 0.480591,-3.136759 c -1.700151,0 0,0 -1.700151,0 -0.592556,0 -1.098985,0.210151 -1.519287,0.630453 -0.420301,0.420301 -0.630452,0.92673 -0.630452,1.519287 v 0.987019 c 0,0.592557 0.210151,1.098986 0.630452,1.519287 0.420302,0.420302 0.926731,0.630453 1.519287,0.630453 h 0.03617 c 0.437527,0 0.837158,-0.122301 1.198893,-0.366903 0.05857,0.244602 0.213596,0.366903 0.465088,0.366903 0.134359,0 0.248047,-0.04651 0.341064,-0.139526 0.09646,-0.09646 0.144694,-0.211874 0.144694,-0.346233 v -4.320149 c 0,-0.130914 -0.04823,-0.244602 -0.144694,-0.341065 -0.09302,-0.09302 -0.206705,-0.139526 -0.341064,-0.139526 z"
           style="font-style:normal;font-variant:normal;font-weight:900;font-stretch:normal;font-size:10.58333302px;font-family:Reef;-inkscape-font-specification:'Reef, Heavy';font-variant-ligatures:normal;font-variant-caps:normal;font-variant-numeric:normal;font-feature-settings:normal;text-align:start;letter-spacing:0.79374999px;writing-mode:lr-tb;text-anchor:start;fill:#191919;fill-opacity:1;stroke:#191919;stroke-width:0.26458332;stroke-miterlimit:4;stroke-dasharray:none;stroke-opacity:1"
           id="path1616"
           inkscape:connector-curvature="0"
           sodipodi:nodetypes="scssssscsscssccsssssscsssssc" />
        <path
           d="m -42.283617,84.686633 c 0,-0.327284 0.115411,-0.606337 0.346232,-0.837158 0.230821,-0.230821 0.509874,-0.346232 0.837158,-0.346232 h 0.03617 c 0.323839,0 0.60117,0.115411 0.831991,0.346232 0.234267,0.230821 0.3514,0.509874 0.3514,0.837158 v 0.98702 c 0,0.327284 -0.117133,0.606337 -0.3514,0.837158 -0.230821,0.230821 -0.508152,0.346232 -0.831991,0.346232 h -0.03617 c -0.327284,0 -0.606337,-0.115411 -0.837158,-0.346232 -0.230821,-0.230821 -0.346232,-0.509874 -0.346232,-0.837158 z m -0.480591,5.157308 c 0.130913,0 0.244601,-0.04651 0.341064,-0.139527 0.09302,-0.09646 0.139527,-0.211873 0.139527,-0.346232 v -1.891357 c 0.358289,0.237711 0.752753,0.356567 1.18339,0.356567 h 0.03617 c 0.592557,0 1.098986,-0.210151 1.519287,-0.630452 0.420302,-0.420302 0.630453,-0.926731 0.630453,-1.519287 v -0.98702 c 0,-0.592557 -0.210151,-1.098986 -0.630453,-1.519287 -0.420301,-0.420302 -0.92673,-0.630453 -1.519287,-0.630453 -1.700151,0 -1.288678,0.0079 -1.700151,0 -0.134359,0 -0.249769,0.04651 -0.346232,0.139527 -0.09302,0.09646 -0.139527,0.210151 -0.139527,0.341064 v 6.340698 c 0,0.134359 0.04651,0.249769 0.139527,0.346232 0.09646,0.09302 0.211873,0.139527 0.346232,0.139527 z"
           style="font-style:normal;font-variant:normal;font-weight:900;font-stretch:normal;font-size:10.58333302px;font-family:Reef;-inkscape-font-specification:'Reef, Heavy';font-variant-ligatures:normal;font-variant-caps:normal;font-variant-numeric:normal;font-feature-settings:normal;text-align:start;letter-spacing:0.79374999px;writing-mode:lr-tb;text-anchor:start;fill:#191919;fill-opacity:1;stroke:#191919;stroke-width:0.26458332;stroke-miterlimit:4;stroke-dasharray:none;stroke-opacity:1"
           id="path1618"
           inkscape:connector-curvature="0"
           sodipodi:nodetypes="sssscsscsssssscscsssssccccsscs" />
        <path
           d="m -36.802814,82.531731 c -0.134359,0 -0.249769,0.04823 -0.346232,0.144694 -0.09302,0.09302 -0.139526,0.206705 -0.139526,0.341064 v 4.309814 c 0,0.134359 0.04651,0.24977 0.139526,0.346233 0.09646,0.09302 0.211873,0.139526 0.346232,0.139526 0.130914,0 0.244602,-0.04651 0.341065,-0.139526 0.09302,-0.09646 0.139526,-0.211874 0.139526,-0.346233 v -2.635497 c 0,-0.323839 0.115411,-0.60117 0.346232,-0.831991 0.230821,-0.234267 0.509874,-0.3514 0.837158,-0.3514 h 0.0052 c 0.134359,0 0.248047,-0.04651 0.341064,-0.139526 0.09646,-0.09302 0.144694,-0.206706 0.144694,-0.341065 0,-0.134359 -0.04823,-0.248047 -0.144694,-0.341064 -0.09302,-0.09646 -0.206705,-0.144694 -0.341064,-0.144694 -0.556394,-0.0034 -1.112787,-0.0069 -1.669181,-0.01034 z"
           style="font-style:normal;font-variant:normal;font-weight:900;font-stretch:normal;font-size:10.58333302px;font-family:Reef;-inkscape-font-specification:'Reef, Heavy';font-variant-ligatures:normal;font-variant-caps:normal;font-variant-numeric:normal;font-feature-settings:normal;text-align:start;letter-spacing:0.79374999px;writing-mode:lr-tb;text-anchor:start;fill:#191919;fill-opacity:1;stroke:#191919;stroke-width:0.26458332;stroke-miterlimit:4;stroke-dasharray:none;stroke-opacity:1"
           id="path1620"
           inkscape:connector-curvature="0"
           sodipodi:nodetypes="cssscscsscsscsccc" />
        <path
           inkscape:connector-curvature="0"
           d="m -32.055819,88.864733 v -7.699788 h 1.188558 q 0.201538,0 0.341065,-0.144694 0.144694,-0.139526 0.144694,-0.341064 0,-0.196371 -0.144694,-0.341065 -0.139527,-0.139526 -0.341065,-0.139526 h -1.669148 q -0.201538,0 -0.346232,0.139526 -0.139527,0.144694 -0.139527,0.341065 v 8.666137 q 0,0.201538 0.139527,0.346232 0.144694,0.139527 0.346232,0.139527 h 1.669148 q 0.201538,0 0.341065,-0.139527 0.144694,-0.144694 0.144694,-0.346232 0,-0.19637 -0.144694,-0.341064 -0.139527,-0.139527 -0.341065,-0.139527 z"
           style="font-style:normal;font-variant:normal;font-weight:900;font-stretch:normal;font-size:10.58333302px;font-family:Reef;-inkscape-font-specification:'Reef, Heavy';font-variant-ligatures:normal;font-variant-caps:normal;font-variant-numeric:normal;font-feature-settings:normal;text-align:start;letter-spacing:0.79374999px;writing-mode:lr-tb;text-anchor:start;fill:#191919;fill-opacity:1;stroke:#191919;stroke-width:0.26458332;stroke-miterlimit:4;stroke-dasharray:none;stroke-opacity:1"
           id="path1622" />
      </g>
      <g
         id="g1632"
         style="stroke:#ff6972;stroke-width:1.85208333;stroke-miterlimit:4;stroke-dasharray:none;stroke-opacity:1"
         transform="matrix(0.52272716,0,0,0.52272716,-13.79683,44.298238)"
         inkscape:export-filename="C:\Users\yamam\zaprototype-logo-t.png"
         inkscape:export-xdpi="542.59442"
         inkscape:export-ydpi="542.59442">
        <circle
           r="2.0591736"
           cy="82.187164"
           cx="-25.4"
           id="circle1626"
           style="opacity:1;fill:none;fill-opacity:1;stroke:#ff6972;stroke-width:1.85208333;stroke-linecap:round;stroke-linejoin:round;stroke-miterlimit:4;stroke-dasharray:none;stroke-opacity:1;paint-order:fill markers stroke" />
        <g
           transform="matrix(0.79716281,0,0,0.79716281,-4.2858834,26.817564)"
           style="stroke:#ff6972;stroke-width:2.32334399;stroke-linecap:round;stroke-linejoin:round;stroke-miterlimit:4;stroke-dasharray:none;stroke-opacity:1"
           id="g1630">
          <path
             id="path1628"
             style="fill:none;stroke:#ff6972;stroke-width:2.32334399;stroke-linecap:round;stroke-linejoin:round;stroke-miterlimit:4;stroke-dasharray:none;stroke-opacity:1"
             d="m -18.520833,66.812503 v 5.291667 m -2.645833,-2.645834 H -15.875"
             inkscape:connector-curvature="0" />
        </g>
      </g>
      <g
         aria-label="]ype"
         style="font-style:normal;font-variant:normal;font-weight:900;font-stretch:normal;font-size:10.58333302px;line-height:1.25;font-family:Reef;-inkscape-font-specification:'Reef, Heavy';font-variant-ligatures:normal;font-variant-caps:normal;font-variant-numeric:normal;font-feature-settings:normal;text-align:start;letter-spacing:0px;word-spacing:0px;writing-mode:lr-tb;text-anchor:start;fill:#191919;fill-opacity:1;stroke:#191919;stroke-width:0.26458332;stroke-miterlimit:4;stroke-dasharray:none;stroke-opacity:1"
         id="g1642"
         transform="matrix(0.52272716,0,0,0.52272716,-12.628023,42.83316)"
         inkscape:export-filename="C:\Users\yamam\zaprototype-logo-t.png"
         inkscape:export-xdpi="542.59442"
         inkscape:export-ydpi="542.59442">
        <path
           inkscape:connector-curvature="0"
           d="m -18.154381,88.864733 q -0.201538,0 -0.346232,0.139527 -0.139526,0.144694 -0.139526,0.341064 0,0.201538 0.139526,0.346232 0.144694,0.139527 0.346232,0.139527 h 1.669149 q 0.201538,0 0.341064,-0.139527 0.144694,-0.144694 0.144694,-0.346232 v -8.666137 q 0,-0.196371 -0.144694,-0.341065 -0.139526,-0.139526 -0.341064,-0.139526 h -1.669149 q -0.201538,0 -0.346232,0.139526 -0.139526,0.144694 -0.139526,0.341065 0,0.201538 0.139526,0.341064 0.144694,0.144694 0.346232,0.144694 h 1.188558 v 7.699788 z"
           style="font-style:normal;font-variant:normal;font-weight:900;font-stretch:normal;font-size:10.58333302px;font-family:Reef;-inkscape-font-specification:'Reef, Heavy';font-variant-ligatures:normal;font-variant-caps:normal;font-variant-numeric:normal;font-feature-settings:normal;text-align:start;letter-spacing:0.79374999px;writing-mode:lr-tb;text-anchor:start;fill:#191919;fill-opacity:1;stroke:#191919;stroke-width:0.26458332;stroke-miterlimit:4;stroke-dasharray:none;stroke-opacity:1"
           id="path1634" />
        <path
           inkscape:connector-curvature="0"
           d="m -10.451492,82.598905 q -0.186035,-0.07235 -0.366903,0.01033 -0.180867,0.08268 -0.253214,0.268718 l -1.167888,3.079915 -1.173055,-3.079915 q -0.06718,-0.186035 -0.253214,-0.268718 -0.180868,-0.08268 -0.366903,-0.01033 -0.191203,0.07235 -0.268717,0.253215 -0.08268,0.186035 -0.0155,0.37207 l 1.55546,4.087606 -0.74414,1.92753 q -0.07235,0.186036 0.01033,0.366903 0.08268,0.186035 0.268717,0.253215 0.186036,0.07235 0.366903,-0.0052 0.186035,-0.08268 0.258382,-0.268717 l 2.43396,-6.361369 q 0.06718,-0.186035 -0.01033,-0.37207 -0.08268,-0.180868 -0.273885,-0.253215 z"
           style="font-style:normal;font-variant:normal;font-weight:900;font-stretch:normal;font-size:10.58333302px;font-family:Reef;-inkscape-font-specification:'Reef, Heavy';font-variant-ligatures:normal;font-variant-caps:normal;font-variant-numeric:normal;font-feature-settings:normal;text-align:start;letter-spacing:0.79374999px;writing-mode:lr-tb;text-anchor:start;fill:#191919;fill-opacity:1;stroke:#191919;stroke-width:0.26458332;stroke-miterlimit:4;stroke-dasharray:none;stroke-opacity:1"
           id="path1636" />
        <path
           d="m -7.6630319,84.686633 c 0,-0.327284 0.1154107,-0.606337 0.346232,-0.837158 0.2308214,-0.230821 0.5098741,-0.346232 0.8371582,-0.346232 h 0.036174 c 0.323839,0 0.6011692,0.115411 0.8319906,0.346232 0.2342665,0.230821 0.3513997,0.509874 0.3513997,0.837158 v 0.98702 c 0,0.327284 -0.1171332,0.606337 -0.3513997,0.837158 -0.2308214,0.230821 -0.5081516,0.346232 -0.8319906,0.346232 h -0.036174 c -0.3272841,0 -0.6063368,-0.115411 -0.8371582,-0.346232 -0.2308213,-0.230821 -0.346232,-0.509874 -0.346232,-0.837158 z m -0.4805908,5.157308 c 0.1309136,0 0.2446017,-0.04651 0.3410644,-0.139527 0.093018,-0.09646 0.1395264,-0.211873 0.1395264,-0.346232 v -1.891357 c 0.3582899,0.237711 0.7527533,0.356567 1.1833902,0.356567 h 0.036174 c 0.5925564,0 1.0989854,-0.210151 1.5192871,-0.630452 0.4203016,-0.420302 0.6304524,-0.926731 0.6304524,-1.519287 v -0.98702 c 0,-0.592557 -0.2101508,-1.098986 -0.6304524,-1.519287 -0.4203017,-0.420302 -0.9267307,-0.630453 -1.5192871,-0.630453 h -0.036174 c -1.663981,0 -1.2531008,0.0078 -1.663981,0 -0.1343587,0 -0.2497694,0.04651 -0.3462321,0.139527 -0.093018,0.09646 -0.1395264,0.210151 -0.1395264,0.341064 v 6.340698 c 0,0.134359 0.046509,0.249769 0.1395264,0.346232 0.096463,0.09302 0.2118734,0.139527 0.3462321,0.139527 z"
           style="font-style:normal;font-variant:normal;font-weight:900;font-stretch:normal;font-size:10.58333302px;font-family:Reef;-inkscape-font-specification:'Reef, Heavy';font-variant-ligatures:normal;font-variant-caps:normal;font-variant-numeric:normal;font-feature-settings:normal;text-align:start;letter-spacing:0.79374999px;writing-mode:lr-tb;text-anchor:start;fill:#191919;fill-opacity:1;stroke:#191919;stroke-width:0.26458332;stroke-miterlimit:4;stroke-dasharray:none;stroke-opacity:1"
           id="path1638"
           inkscape:connector-curvature="0"
           sodipodi:nodetypes="sssscsscsssssscscssssssscccsscs" />
        <path
           inkscape:connector-curvature="0"
           d="m -1.8049914,84.691801 q 0,-0.485759 0.346232,-0.831991 0.3462321,-0.346232 0.83715822,-0.346232 h 0.0361735 q 0.48059081,0 0.83199054,0.346232 0.34106444,0.3514 0.34623208,0.837158 H -1.8049914 Z m 3.3693032,0 q 0,-0.186036 -0.036174,-0.366903 Q 1.4919648,84.097522 1.4041149,83.885648 1.243918,83.492907 0.94419467,83.188016 0.31374222,82.547229 -0.58542768,82.547229 h -0.0361735 q -0.88883462,0 -1.51928702,0.630452 -0.6304525,0.625285 -0.6304525,1.51412 v 0.992187 0 q 0.010335,0.883667 0.6356201,1.503784 0.6304525,0.625285 1.51411942,0.625285 h 0.0361735 q 1.08520505,0 1.73116048,-0.878499 0.144694,-0.196371 0.072347,-0.434082 -0.072347,-0.232544 -0.30489099,-0.310059 -0.3358968,-0.118856 -0.54260252,0.165365 -0.35656737,0.490926 -0.95601397,0.490926 h -0.0361735 q -0.49092612,0 -0.83715822,-0.346232 -0.346232,-0.346232 -0.346232,-0.837159 l 2.40295399,-0.0052 q 0.55293781,0 0.83199051,-0.480591 0.1343587,-0.222209 0.1343587,-0.485758 z"
           style="font-style:normal;font-variant:normal;font-weight:900;font-stretch:normal;font-size:10.58333302px;font-family:Reef;-inkscape-font-specification:'Reef, Heavy';font-variant-ligatures:normal;font-variant-caps:normal;font-variant-numeric:normal;font-feature-settings:normal;text-align:start;letter-spacing:0.79374999px;writing-mode:lr-tb;text-anchor:start;fill:#191919;fill-opacity:1;stroke:#191919;stroke-width:0.26458332;stroke-miterlimit:4;stroke-dasharray:none;stroke-opacity:1"
           id="path1640" />
      </g>
      <g
         id="g1646"
         transform="matrix(0.52272716,0,0,0.52272716,-12.628023,42.83316)"
         inkscape:export-filename="C:\Users\yamam\zaprototype-logo-t.png"
         inkscape:export-xdpi="542.59442"
         inkscape:export-ydpi="542.59442">
        <path
           style="opacity:1;fill:#ff6972;fill-opacity:1;stroke:none;stroke-width:0.01875;stroke-linecap:round;stroke-linejoin:round;stroke-miterlimit:4;stroke-dasharray:none;stroke-opacity:1;paint-order:fill markers stroke"
           d="m -53.154297,297.28906 c -1.143111,0.0754 -1.575093,0.3476 -2.169926,0.79901 l -0.002,0.002 -0.002,0.002 c -0.585275,0.46033 -1.014396,1.06364 -1.257813,1.76758 h -0.002 v 0.002 c -0.140371,0.41175 -0.05095,0.90456 0.205079,1.25 0.254361,0.34522 0.695113,0.56445 1.123046,0.56445 0.279988,0 0.569825,-0.0692 0.810547,-0.23828 0.267696,-0.16584 0.421373,-0.43532 0.513672,-0.7168 0.123664,-0.45793 0.538946,-0.77639 1.013672,-0.77734 0.581157,-3.4e-4 1.052521,0.47014 1.052734,1.05078 0.0344,0.25283 -0.182335,0.61272 -0.224611,0.65629 -0.06773,0.0729 -0.20508,0.22005 -0.476562,0.51172 -0.542975,0.58332 -1.628224,1.74942 -3.804688,4.0918 l -0.03711,0.041 -0.0293,0.0449 c -0.195553,0.30724 -0.26082,0.70697 -0.175782,1.05664 0.08258,0.34356 0.303723,0.66254 0.597657,0.85547 l 0.01172,0.008 0.01367,0.008 c 0.204133,0.12064 0.44314,0.19183 0.685547,0.20117 h 0.01172 4.761719 c 0.359206,0 0.727328,-0.15122 0.980468,-0.4043 l 0.0039,-0.004 0.0039,-0.004 c 0.248882,-0.2581 0.394531,-0.62484 0.394531,-0.98047 0,-0.35357 -0.147592,-0.71655 -0.394531,-0.97265 l -0.0039,-0.004 -0.0039,-0.004 c -0.253189,-0.25319 -0.621285,-0.40429 -0.980468,-0.40429 h -1.703125 c 0.09025,-0.0827 0.08091,-0.0673 0.175781,-0.15625 0.7405,-0.6948 1.587233,-1.5417 2.076172,-2.32032 0.397837,-0.63352 0.865362,-1.42803 0.826172,-2.375 -0.03742,-0.89968 -0.441641,-1.75219 -1.095703,-2.40625 l -0.03516,-0.0371 -0.0059,-0.004 c -0.631311,-0.57187 -1.218734,-0.86179 -2.039062,-1.04298 -0.297724,-0.069 -0.555834,-0.0592 -0.81837,-0.0607 z"
           transform="scale(0.26458333)"
           id="path1644"
           inkscape:connector-curvature="0"
           sodipodi:nodetypes="ccccccccscccccccccccccccscccscccscccccccccc" />
      </g>
    </g>
  </g>
</svg>
